<svg xmlns="http://www.w3.org/2000/svg" viewBox="0 0 86.27 90.63"><defs><style>.cls-1{fill:#fdfdfd;}.cls-2{fill:#060606;}.cls-3{fill:#fcfcfc;}.cls-4{fill:#040404;}.cls-5{fill:#070707;}.cls-6{fill:#090909;}.cls-7{fill:#fbfbfb;}.cls-8{fill:#ebebeb;}.cls-9{fill:#e9e9e9;}.cls-10{fill:#b1b1b1;}.cls-11{fill:#dadada;}.cls-12{fill:#dfdfdf;}.cls-13{fill:#c8c8c8;}.cls-14{fill:#bdbdbd;}.cls-15{fill:#efefef;}.cls-16{fill:#e4e4e4;}.cls-17{fill:#c7c7c7;}.cls-18{fill:#f0f0f0;}.cls-19{fill:#616161;}.cls-20{fill:#6c6c6c;}.cls-21{fill:#dcdcdc;}.cls-22{fill:#f8f8f8;}.cls-23{fill:#ddd;}.cls-24{fill:#414141;}.cls-25{fill:#080808;}.cls-26{fill:#0e0e0e;}.cls-27{fill:#ececec;}.cls-28{fill:#c2c2c2;}.cls-29{fill:#181818;}.cls-30{fill:#232323;}.cls-31{fill:#222;}.cls-32{fill:#e1e1e1;}.cls-33{fill:#fefefe;}.cls-34{fill:#3f3f3f;}.cls-35{fill:#3e3e3e;}.cls-36{fill:#8e8e8e;}.cls-37{fill:#7e7e7e;}.cls-38{fill:#e3e3e3;}.cls-39{fill:#e8e8e8;}.cls-40{fill:#d7d7d7;}.cls-41{fill:#a6a6a6;}.cls-42{fill:#737373;}.cls-43{fill:#9c9c9c;}.cls-44{fill:#d9d9d9;}.cls-45{fill:#383838;}.cls-46{fill:#5e5e5e;}.cls-47{fill:#b2b2b2;}.cls-48{fill:#f2f2f2;}.cls-49{fill:#f7f7f7;}.cls-50{fill:#1b1b1b;}.cls-51{fill:#ccc;}.cls-52{fill:#c9c9c9;}.cls-53{fill:#d8d8d8;}.cls-54{fill:#a9a9a9;}.cls-55{fill:#2c2c2c;}.cls-56{fill:#c1c1c1;}.cls-57{fill:#1e1e1e;}.cls-58{fill:#adadad;}.cls-59{fill:#f9f9f9;}.cls-60{fill:#f4f4f4;}.cls-61{fill:#d5d5d5;}.cls-62{fill:#c3c3c3;}.cls-63{fill:#a2a2a2;}.cls-64{fill:#848484;}.cls-65{fill:#cfcfcf;}.cls-66{fill:#212121;}.cls-67{fill:#cecece;}</style></defs><g id="Layer_2" data-name="Layer 2"><g id="Layer_1-2" data-name="Layer 1"><path class="cls-1" d="M78.28,50.16c-1.8,2.12-6,2-5.63,6.28.06.75-1.64.51-2.57.51-2.07-3-4.27-1.08-6.45-.18-5.57,2.32-10.76,2-15.38-2.23-.45-.7-.53-1.58-1-2.22-2.27,1.4-.59,4.7-2.95,6a8.13,8.13,0,0,1-2,.26,54.36,54.36,0,0,1-10,5A12.13,12.13,0,0,0,26.53,68c-.79,1-1.89,2.38-3.15,1.89-1.81-.71-.86-2.51-.7-3.9a7.82,7.82,0,0,1,.54-1.87,29.92,29.92,0,0,1,4.18-5.39,7.44,7.44,0,0,0,3.07-2.92,18.85,18.85,0,0,0,2.87-4.15c1.47-1.9,3.44-3.34,4.92-5.17s-.91-.31-1-.91c-.85-.17-1.43-.87-2.25-1.09-2,.06-3.74,1.31-5.76,1.22-4.89-.21-8.54-4.19-13.44-4.4a3.29,3.29,0,0,1-1.94-1.08c3.79-6,11.06-8.46,17.2-5.73a41.57,41.57,0,0,0,6.35,2.57c.92.25,1.83.6,2.72.94,2.87,1.36,5.25,3.46,7.86,5.2a13.4,13.4,0,0,0,3.75,1.22c3.38.63,6.26,2.55,9.39,3.71.26,0,.43.68.66.24s.12.31-.34-.21c-1.84-1.33-4.9-.85-5.5-3.88a3.29,3.29,0,0,1,1.23-2.51,3.87,3.87,0,0,1,3.4-.8,18.71,18.71,0,0,1,3.69,3.2c3.52,4.47,8.37,5.3,13.54,5.48C78,49.83,78.13,50,78.28,50.16Z"/><path class="cls-2" d="M24.17,64.05l-1,5.51c3.76-8.5,13.62-7.32,19.38-12.46,1.32,1.3.46,2.6,0,3.9a39.83,39.83,0,0,0-2.6,5.53c-.08,1.8-2.72,3-1.25,5.1a6.81,6.81,0,0,1,2.9.88c1.1-.23-.87,1.86.88,1.16,2.55-1,3.56-4.85,7.16-4,.25,1.66-.61,3.39.28,5-1.81,1.84-4.6.43-6.5,2L41.71,78c-1.22.76-2.81-.31-4,.81l-.1,1.79a1.55,1.55,0,0,1-1.75.72c-2.21-1.41-6.34-1.42-4.36-5.9-1.1-1-1.21.16-1.55.73.52,2,1,3.9-1.7,4.65-1.11.24-2.23.62-3.31-.12l0,.07A44.21,44.21,0,0,0,18.32,74a4.79,4.79,0,0,1-.18-1.41,24.23,24.23,0,0,0,.13-3.91C18.05,64.17,19.33,63.23,24.17,64.05Z"/><path class="cls-3" d="M66.08,13.66c2.11-1.69,4.3-2.41,7-1.2a7.44,7.44,0,0,0,5.14.08,2,2,0,0,1,.68,1,5,5,0,0,0,1.36,2.2c5.93,2.69,7.38,6.33,4.74,14.05-.76,2.21.92,5.43-2.78,6.83-1.29.49-2.13,1.52-3.77.91a3,3,0,0,0-4.08,1.65c-.85,1.89-1.13,3.72.67,5.3,1.35,1.18,2.68,2.37,4,3.61s0,1.55-.73,2.09L78,49.89c-4.69-1.4-7.35-4.89-9.31-9.1a2.28,2.28,0,0,1-.73-1.86c.82-2,2.81-2.32,4.36-3.29a2.19,2.19,0,0,1,.91-.28c4.86.12,8.34-1.31,8.06-7.07,1-1.49,2.58-3.25.91-4.77-1.35-1.22-3,.48-4.43,1.17-1.64.8-2.49,2.63-4.16,3.43-2.38.37-3.67,2.39-5.45,3.67-1.84.33-2.42-.91-2.86-2.31-.24-.82-.43-1.65-.73-2.44-.42-1.32-1.66-1.54-2.72-2a2.12,2.12,0,0,1-.84-1c.23-4.91,4.78-5.65,7.7-8C68,15.06,66.11,15.35,66.08,13.66Z"/><path class="cls-4" d="M49.63,69.91c-3,.19-3.68,3.5-6.12,4.45-1.54.6-2.69.9-1.81-1.45-.56-1.82-4.27.19-3.68-3,.26-1.08,1.16-1.87,1.37-3C40.45,65.23,41,63.32,42,61.62c.76-1.08.74-2.54,1.71-3.52,2-2.38.65-5.9,2.94-8.25.89-.92,1.24-.51,1.85,0-.8,2.42-.2,4.91-.38,7.36,0,1.64-.76,3.23-.19,4.92-.58-1.55.16-3,.22-4.5.16-1.14-.41-2.39.53-3.4,5.22,3.21,10.54,3.54,16,.7,1.76-.91,3.47-2.74,5.62-.44,1,1.09.15,1.66-.24,2.44-3.64,1.74-6.85,4.4-11.08,4.89-2.76.32-2,3.53-3.57,4.88C53.49,67.78,52.79,71.09,49.63,69.91Z"/><path class="cls-5" d="M43.86,9.35c2,.51,3.18-.92,4.56-1.89.92-.35,1.34.19,1.67.91.28,2.06-.7,3.78-1.48,5.55-1.11,1.95-.36,4.12-.71,6.17-1.91,2.24-3.94,1.21-6,.23-2.18-2-4.24-1.65-6.2.36-2,2.54-2.83,6.53-7.25,6.33-2-1.36-1.08-4-2.54-5.64v0c-.25-1.75-.33-3.46,1.13-4.82,2.49-.1,5.36.68,6.13-3,.38-1.83,2.66-.79,3.53-2a8.82,8.82,0,0,1,3.76-1.61C41.88,11.24,42.64,9,43.86,9.35Z"/><path class="cls-6" d="M24.17,64.05c-3.6.48-6.41,1.45-4.41,6.11.29.67-.5,1.81-.79,2.74-1.27.33-1.4-.53-1.51-1.42A4.19,4.19,0,0,0,17,68l-.9-1c-.78-1.46.73-1.72,1.28-2.49.63-.57,1-1.35,1.69-1.89.75-1.11,3,.14,3.09-1.94-1.62-1.75,0-3.44.2-5.09.7-6-.09-7.5-5.68-9.21-1-.41-2.28-.41-2.92-1.55.69-1.54,1.87-2.84,2.14-4.57,5.17-.17,8.81,4,13.62,4.84,1.26-.31,2.57-.85,3.55.59C31.56,50.16,29.44,54.47,28,59A15.17,15.17,0,0,1,24.17,64.05Z"/><path class="cls-5" d="M66.08,13.66c1.78,1.4,4.09.38,6.57,1.57-3.89,3.17-10,3.35-11.16,9.18.75,2.06-.14,3.62-1.52,5a2.35,2.35,0,0,1-1.34.31,3.33,3.33,0,0,1-1.7-1.14c-1.68-2.26.88-4.77-.41-7.07-.48-2.35-.09-4.81-.91-7.12a10.32,10.32,0,0,1,2.08-8.53c2.54-1.7,3.62-.3,3.84,2.06.16,1.59-.38,3.26.89,4.62C63.34,14,64.79,13.53,66.08,13.66Z"/><path class="cls-7" d="M14.05,44.21c.25,2.15,1.89.79,2.85,1.14.46,1-.07,1.44-.86,1.8C13.48,45.78,10.9,44.46,8.39,43c-1.07-.63-2.39-1.24-3.2-.49C3.45,44.14,2.06,43.9.62,42.38c-1.93-2,1.26-2.67,1.29-4.47,0-2.18,2.27-1.72,3.89-1.26a10.12,10.12,0,0,1,1.34.62,1.28,1.28,0,0,1,.45,1c.18,1,1.06,1.14,1.86,1.34C11.61,40.52,15.81,39.39,14.05,44.21Z"/><path class="cls-8" d="M14.05,44.21c.38-4.88-4.57-1.69-5.93-3.93a2.49,2.49,0,0,1-1-2.14c0-.29,0-.58,0-.87a5.52,5.52,0,0,0,4.1-3.07c1.6-3.47,4.52-4.21,7.67-4.9a1.14,1.14,0,0,1,.39,1.21c-.78,1.72-2.48,2.48-3.79,3.64-1.83,1.62-2.91,3.46-1.77,6l2.16.08C16,41.86,17.11,44,14.05,44.21Z"/><path class="cls-9" d="M62.42,12.57c-1.59-.62-3-1.1-1.94-3.47.67-1.58.81-3.74-2.15-3.52a1.33,1.33,0,0,1-1.8.26c-.87-.27,1-2.17-1-1.75-2-.26-4.22,0-5.95-1.52-.24-.73-.77-1.46.45-1.92a9,9,0,0,1,12.42,9C62.38,10.62,62.42,11.59,62.42,12.57Z"/><path class="cls-10" d="M16,47.15l.86-1.8c6.58,1.37,7.44,2.85,6.18,9.87-.34,1.93-1.69,4.2.9,5.76a3,3,0,0,1-3,.77c-2.21-1.13-1.62-2.42-.2-3.75C22.71,52.84,21.93,48.88,16,47.15Z"/><path class="cls-11" d="M19,30.21c0-.3,0-.61-.05-.91a10.49,10.49,0,0,0,1.79-1.58c1.18-1.65.42-5.21,4.29-4.23a11.73,11.73,0,0,0,1-2.12c.67,1.61,4.92,2,1.72,4.93-1.2,1-2.64,1.53-3.54,3.05C22.93,31.35,21.05,32.11,19,30.21Z"/><path class="cls-12" d="M17,68c2,.43,1.34,1.78,1.06,3-1.5,1.49-.85,2.38.84,3C22,75.23,23.64,77.85,25,80.74c-3.66-3.41-8.09-5.61-12.79-7.72C15.33,72.49,16.58,70.6,17,68Z"/><path class="cls-13" d="M25,80.67l2.75-.61c1.05.28.57,2.63,2.44,1.8a3,3,0,0,1,.32,2.59,4.71,4.71,0,0,1-1.16,1.73,3.6,3.6,0,0,1-1.84,1c-1.43,0-2.8-.22-3.73-1.51C21.85,83.42,24.8,82.39,25,80.67Z"/><path class="cls-14" d="M23.76,85.65l4.21,1a2.71,2.71,0,0,1,1.28-.54c1,0,1.91.2,1.7,1.57-2.42,2.15-5.41.29-8,1.13-1.55.12-2.26-.55-2-2.13Z"/><path class="cls-15" d="M31,87.71a2.19,2.19,0,0,0-2.19-1l-.28-.36.24-.39L30,84.55a8.08,8.08,0,0,1,3-1.53,6.25,6.25,0,0,1,1.36-.24,2.83,2.83,0,0,1,2.5,1C36.72,87.89,32.16,85.31,31,87.71Z"/><path class="cls-16" d="M49.63,69.91c2.43-.16,3.39-3,5.8-3.19-.69,1.64-1.46,3.55-3.19,4-2.79.72-1.85,2.48-1.67,4.14a.75.75,0,0,1-1.13-.06C48.73,73.13,47.88,71.47,49.63,69.91Z"/><path class="cls-11" d="M49.44,74.79l1.13.06c-1.65,3.57-4.72,1.5-7.19,1.82C44.93,74.53,47,74.08,49.44,74.79Z"/><path class="cls-17" d="M40.69,10.55a3.74,3.74,0,0,1-3.94,1c.63-1.6.1-4.1,3-3.89C40.47,8.49,41.44,9.25,40.69,10.55Z"/><path class="cls-18" d="M19,63.1c-.13.76,0,1.68-1.12,1.83-1.51.55-3.15,1.65-3.89-1,1.27-1.53,3.72-.27,4.86-2.07l.45.3A.71.71,0,0,1,19,63.1Z"/><path class="cls-19" d="M40.69,10.55c-.31-1-.61-1.94-.91-2.91a4.93,4.93,0,0,1,4.08,1.71C42.72,9.52,42.76,12.85,40.69,10.55Z"/><path class="cls-11" d="M27.09,16.59c-.72,1.53.43,3.49-1.13,4.82C24.1,19.28,23.46,17.44,27.09,16.59Z"/><path class="cls-20" d="M49.56,2.57c2.29.57,4.9-1,7,1-1.3,1.46-3.39,1.15-4.89,2.16a1.08,1.08,0,0,1-1.17-.38Z"/><path class="cls-11" d="M14,64c1,1.46,2.57.72,3.89,1l-1.82,2c-1.16-.78-3-.62-3.24-2.55C12.85,64.29,13.62,64.11,14,64Z"/><path class="cls-21" d="M36.78,83.78l-3,0c-.52-1.42.6-2,1.36-2.81l.61-.31,1.89,0C37.68,81.74,38,83,36.78,83.78Z"/><path class="cls-22" d="M20.93,86.71a3.13,3.13,0,0,0,2,2.13c-.14,1.12-1,2.28-1.78,1.57S19.37,88,20.93,86.71Z"/><path class="cls-23" d="M78.15,13.35c0-.27,0-.54.07-.81,1-.29,2.07-1.45,3-.2s-1,1.33-1.08,2.2C79,14.94,78.47,14.37,78.15,13.35Z"/><path class="cls-18" d="M20.79,58c-.35,1-1.56,2.07,0,3.13.07,1.66-.71,1.55-1.77.86l-.09-.08C19.2,60.45,18.33,58.42,20.79,58Z"/><path class="cls-24" d="M49.69,8.74,48.42,7.46l2.07-2.07a.8.8,0,0,0,.24.58,1.45,1.45,0,0,1,1.09.72C51.8,8.08,51.16,8.84,49.69,8.74Z"/><path class="cls-10" d="M78.15,13.35l2,1.19c0,.39,0,.78.08,1.17C79.36,15.1,76.26,16.45,78.15,13.35Z"/><path class="cls-11" d="M37.75,78.8c1-2.1,2.65-.51,4-.81C40.6,79.27,39.12,78.78,37.75,78.8Z"/><path class="cls-4" d="M19,30.21c1.91-.62,5.45,1.58,4.69-3.53-.31-2.1,2.63.16,4-.38,4.52,0,5.47-3.78,7.1-6.82,2.32-.6,4.63-1.64,6.94,0,2,0,3.92,2.18,5.92.08a.88.88,0,0,1-.09-1.32,2.77,2.77,0,0,1,2.18-.3,3.8,3.8,0,0,1,2.75,3.23,5.49,5.49,0,0,1-1,3.4,9.76,9.76,0,0,1-1.7,2.15,7,7,0,0,1-2.47.89c-.62.17-1.24.35-1.85.55a12.64,12.64,0,0,1-3.78.85c-3.47-1.09-1.76,1.88-2.36,3-.17,1.09.27.95.85.37A4.18,4.18,0,0,1,42,31.07a2,2,0,0,1,1.2.77c1.35,4.95-2.31,5.45-5.58,6.31-2.76.66-4.68-1.38-6.75-2.44-4-2-7.48-2.08-10.83.89-1.86,1.64-4.71,1.42-6.28,3.51-3.79-1.47-2.1-3.81-.53-5.51S17,31.65,19,30.21Z"/><path class="cls-25" d="M46.43,26.5l3-.12c1.3-.19,1.88-1.23,2.52-2.2,1.16-1.46.16-3.57,1.5-5a3.11,3.11,0,0,1,1.34-.49c2.72-.1,1.85,2.41,2.69,3.68,3,1.87-1.77,3.82.07,5.7.21,2-.49,3.81-.67,5.72a33.15,33.15,0,0,1-.92,5.25c-1.95,5.41-2.48,5.75-8.27,5.32l-7.76-5.24c1.06-3,4.93-2.29,6.37-4.79a6.65,6.65,0,0,1,.77-1c.75-.24,1.06-.58.28-1.19-.21-1,.1-1.95-.07-2.92S46.22,27.56,46.43,26.5Z"/><path class="cls-22" d="M47.64,44.39c4.29.38,6.46-1.78,7-5.87A6.55,6.55,0,0,0,56.88,34c.76-1.61,1.26-3.37,2.53-4.7l2.08-4.93.86,0c.76,1,2.11,1,3,1.84l1.08,2.12c-1.06,1.24-.2,2.66-.37,4a14.85,14.85,0,0,1-5,8.12,6.72,6.72,0,0,0-3.46,1.69l-1,2.12c-1.46,1.24-3.19,1.06-4.92.91C50.23,45.06,48.76,45.62,47.64,44.39Z"/><path class="cls-26" d="M69.35,40.24c2,4,5.73,6.45,8.61,9.65C70.51,51.21,62.79,47.26,61,41.22a3,3,0,0,1,1.17-.86C64.57,39.53,67,40.46,69.35,40.24Z"/><path class="cls-27" d="M28,59a15.81,15.81,0,0,1,4.79-13c.7-1.25,2-1.91,2.95-2.87,1,.34,1,1.17,1,2,1.55,3.37-2.57,3.79-3.14,6.07-.93,1.53-1.35,3.37-2.75,4.63C31.09,58,30.34,59.28,28,59Z"/><path class="cls-28" d="M47.35,34.28c-.84,4.15-5.28,2.78-7.47,4.87l-2.28-1c1.44-2.42,7.22-1.75,4.86-6.86.11-.2.21-.4.31-.61a2.23,2.23,0,0,1,1.13-.63c1.54.32,1.64,1.81,2.31,2.83C46.59,33.35,47,33.82,47.35,34.28Z"/><path class="cls-29" d="M32.93,51.14c-.6-3.19,4.21-2.87,3.84-5.92,1.77-1.42,3.74-1.42,6.38-.83a58.52,58.52,0,0,0-9.16,8C33.26,52.32,33.19,51.65,32.93,51.14Z"/><path class="cls-30" d="M51.56,45.17c1.46-1.25,3.19-1.1,4.92-.91.83,2.8,5.14.69,5.62,4a1.14,1.14,0,0,1-.65.88Z"/><path class="cls-31" d="M35.73,43.21c.19,2.17-1.66,2.23-2.95,2.87-.82-1.19-2.19-.67-3.26-1C31.79,45.12,33.14,42,35.73,43.21Z"/><path d="M32.93,51.14,34,52.44c-1.14,1.07-.14,4.05-3.11,3.48C30.88,54,32.1,52.67,32.93,51.14Z"/><path class="cls-32" d="M48.66,54.25,48.47,58c-.31.47-.61.46-.9,0-.69-2.83.27-5.48.91-8.16Z"/><path class="cls-33" d="M43.69,58.1c.24,1.48-.69,2.6-1.18,3.85-.81.11-1.39,0-.84-1l.84-3.85Z"/><path class="cls-34" d="M61.45,49.12l.65-.88c1.13,0,2.28-.1,2.89,1.13a.79.79,0,0,1-.31.69A2.21,2.21,0,0,1,61.45,49.12Z"/><path class="cls-35" d="M60.91,41.27l.12,0c-1.25,0-2,1.8-3.51.91,0-2.16,1.42-2.06,2.9-1.92a.72.72,0,0,1,1.18,0A.79.79,0,0,1,60.91,41.27Z"/><path class="cls-36" d="M42.35,55.58c-.77.59-2.06.63-2.28-.14-.46-1.69.92-.39,1.42-.58S42.41,54.8,42.35,55.58Z"/><path class="cls-37" d="M29.82,81.81c-1.2,0-2.22-.18-2.09-1.75,4.22-.89,1.23-2.73.56-4.27,1.45-.41,2.62-2.08,4.4-.93l.79,1.1c-2.9,1.53-.88,2.32.46,3.25.63.43,1.21,1,1.82,1.42l.16.26-.15.26a5.29,5.29,0,0,1-4.71,1.45A5.93,5.93,0,0,1,29.82,81.81Z"/><path class="cls-38" d="M41.67,61l.84,1c-.77,1.78-.87,3.92-2.74,5.11A1.51,1.51,0,0,1,39,66C39.8,64.26,39.92,62.17,41.67,61Z"/><path class="cls-39" d="M39,66l.77,1.08a3.23,3.23,0,0,1-1.13,2.85c-.84.8.11,2.15-.9,2.9-1.08.16-2.54.73-1.49-1.38C37.16,69.6,38.08,67.79,39,66Z"/><path class="cls-40" d="M37.74,72.81c0-1.06-.25-2.2.9-2.9.12.78-.5,2.14,1.37,1.26,1.71-.81,2.43-.12,1.69,1.74Z"/><path class="cls-41" d="M32.69,74.86l-4.4.93c.59-2.12,2.6-2,4.12-2.41C33.17,73.19,32.73,74.31,32.69,74.86Z"/><path class="cls-42" d="M18.9,73.92c-1-.1-2.54.69-2.91-.6-.16-.6.77-2.08,2.07-2.36.17.7-.13,1.63.91,1.94Z"/><path class="cls-6" d="M73.32,27.61c1.82-3.66,5.5-4.68,8.8-6.27,2.25-1.08,2.24,1.23,2.12,1.85C83.89,25,84,27.1,82.15,28.33c-1.35,4.92-4.39,7.82-9.64,8.07-.75,1.87-3.2,1.28-4.13,2.88-2.49,1.08-2.29-.58-2.19-2.14a12.21,12.21,0,0,1,2.57-4.88C70.21,30.65,70.8,28.17,73.32,27.61Z"/><path class="cls-43" d="M72.51,36.4c.33-.52.75-1.53,1-1.48,4.85.91,6-2.74,7.48-6,.15-.32.78-.42,1.18-.62C81,35.81,81,35.81,72.51,36.4Z"/><path class="cls-44" d="M67.25,37.5c-1,1.47-.52,2,1.13,1.78l1,1a18.24,18.24,0,0,1-8.44,1l.45-1.07C63.1,38.81,63.68,34.89,67.25,37.5Z"/><path class="cls-45" d="M73.32,27.61c-1.57,1.51-1.67,4.08-3.76,5.22a1.1,1.1,0,0,1-1.08-.13c-.28-.35-.24-.64.17-.85C68.72,28.79,69.57,26.6,73.32,27.61Z"/><path class="cls-46" d="M68.65,31.85a1.35,1.35,0,0,1,.21.67,2.59,2.59,0,0,1-3.41-.17c.54-1.28-1.62-3.2.94-4C66.15,30.15,67.13,31.18,68.65,31.85Z"/><path class="cls-47" d="M65.31,26.22c-1.45.13-3,.35-3-1.84C63.74,24.35,65.17,24.24,65.31,26.22Z"/><path class="cls-48" d="M47.57,58a6.76,6.76,0,0,0,.9,0c.79,2.24-.31,4.5.29,6.77C47.33,62.66,46.1,60.54,47.57,58Z"/><path class="cls-49" d="M54.54,19.11a.7.7,0,0,1-.77.44,1.3,1.3,0,0,1-1.19.33c-.8-.86-2-.84-3-1.23l-2-.24c0-1.64,2.83-3.24,0-4.91l2-4.76,2-2.08c1-2.18,2.59-2.42,4.53-1.21l2.13.13c-.16,3-3.11,5.49-1.77,8.82C57.05,16.47,58,18.74,54.54,19.11Z"/><path class="cls-50" d="M47.69,13.5c1.47.37,3.66-.21,4,1.92.4,3-3.38,1-4,3,0,.38,0,.76,0,1.14C46.12,17.52,46,15.5,47.69,13.5Z"/><path class="cls-51" d="M41.71,19.47H34.77C37.09,18.82,39.39,14.82,41.71,19.47Z"/><path class="cls-52" d="M19,62l1.78-.86L24,61c-.31,3.8-3.33,1.32-4.94,2.12Z"/><path class="cls-53" d="M54.54,19.11c2.05-1,1.82-2.93,2-4.71a13.17,13.17,0,0,1,.87,8C55.71,22,57.18,18.73,54.54,19.11Z"/><path class="cls-54" d="M55.58,33.2c-.26-2,.93-3.54,1.92-5.1l1,1.26a4,4,0,0,1-1.63,4.4A1.45,1.45,0,0,1,55.58,33.2Z"/><path class="cls-55" d="M56.53,33.57l1.92-4.21c.32,0,.64,0,1,0,0,1.87-.19,3.7-1.81,5C56.78,34.74,56.47,34.41,56.53,33.57Z"/><path class="cls-56" d="M7.1,38.14a2.1,2.1,0,0,1,1,2.14c-.85-.17-2,.19-2.42-.82S6.44,38.41,7.1,38.14Z"/><path class="cls-57" d="M56.2,5.45c-1.81-.74-3.07.6-4.53,1.21L50.73,6c1.12-2.81,3.54-2.41,5.82-2.36C57.79,4.48,56.78,4.92,56.2,5.45Z"/><path class="cls-58" d="M29.82,81.81l1.12,0c.59.73,2.38.14,2.06,1.87-.73,1.35-1.91,1-3.05.83C29.9,83.64,29.86,82.72,29.82,81.81Z"/><path class="cls-31" d="M28.72,85.94a3.78,3.78,0,0,0,0,.75l-.4,0H28C28,86.17,28.16,85.86,28.72,85.94Z"/><path class="cls-59" d="M33,83.72c-.68-.63-1.37-1.25-2.06-1.87l4.83-.7c0,1.39-1.63,1.49-2,2.6Z"/><path class="cls-30" d="M38.72,32.27c-.45-1.84-.95-3.74.57-5.26.18-.18,1.57.87,2.39,1.35a3.14,3.14,0,0,1,1.33,3l-.29.11-.26-.18-.35.08-.35-.05C40.88,32.07,40.07,33,38.72,32.27Z"/><path class="cls-27" d="M26.09,30.13c3.48-1.86,5.68-1.57,9.23,0Z"/><path class="cls-60" d="M52.72,19.46l1.05.09c-.74,1.84.21,4.08-1.38,5.71-1.26,1-1.92.71-1.92-.93l1.17-2.7C52.2,21,51.78,19.89,52.72,19.46Z"/><path class="cls-61" d="M38.72,32.27c1-.3,1.74-1.56,3-1,0,1.66-.76,2.92-2.45,3.21-.8.13-2.15.67-2.37-.72C36.88,33.4,38.09,32.79,38.72,32.27Z"/><path class="cls-62" d="M43,31.36a3.09,3.09,0,0,1-1.33-3,3.68,3.68,0,0,1,3.86-.47A1.92,1.92,0,0,1,45.13,29a9,9,0,0,1-1.42,1.2Z"/><path class="cls-63" d="M45.12,28.29c0-.3.15-.43.42-.4l.89-1.39c.69.95,2.11,1.4,1.92,2.92a2.78,2.78,0,0,1-2.18.75C45.26,29.85,44,29.74,45.12,28.29Z"/><path class="cls-64" d="M50.47,24.33a1.48,1.48,0,0,0,1.92.93c-.74,1.09-1.35,2.5-3,1.12Z"/><path class="cls-25" d="M52.72,19.46l-1.08,2.17c.1-1.52-1.2-2.09-2-3C50.74,18.58,52,18,52.72,19.46Z"/><path class="cls-65" d="M46.41,29.4l1.94,0c1.06,1.19-.36,1.95-.49,2.93a.83.83,0,0,1,0,.93l-.48,1H45.59C44.63,32.45,45.42,30.91,46.41,29.4Z"/><path class="cls-66" d="M56.53,33.57l1.07.77c-.14,2,0,4.2-3,4.18l.94-5.32Z"/><path class="cls-67" d="M45.61,37.64c1.82,0,3.17-.79,3.91.89C48.15,39.87,47.25,38.73,45.61,37.64Z"/><path d="M47.83,33.28l0-.93a4.22,4.22,0,0,1,.26.67C48.14,33.08,47.93,33.19,47.83,33.28Z"/><path class="cls-31" d="M65.45,32.35l3.4.17a1.52,1.52,0,0,1,.71.31L67.25,37.5c-2.78-.89-3.7,2.3-5.89,2.7l-.47-.05-.47.07Z"/><path class="cls-57" d="M46.41,29.4l-.82,4.88c-1.93-.74-.24-3.17-1.88-4,.17-.86-.38-2.26,1.41-1.95C44.9,29.41,45.73,29.31,46.41,29.4Z"/></g></g></svg>