<svg xmlns="http://www.w3.org/2000/svg" viewBox="0 0 352.27 95.47"><defs><style>.cls-1{fill:#eaeaea;}.cls-2{fill:#898989;}.cls-3{fill:#dfdfdf;}.cls-4{fill:#f1f1f1;}.cls-5{fill:#efefef;}.cls-6{fill:#2a2a2a;}.cls-7{fill:#a0a0a0;}.cls-8{fill:#dedede;}.cls-9{fill:#e7e7e7;}.cls-10{fill:#4a4a4a;}.cls-11{fill:#363636;}.cls-12{fill:#f2f2f2;}.cls-13{fill:#373737;}.cls-14{fill:#444;}.cls-15{fill:#ccc;}.cls-16{fill:#cdcdcd;}.cls-17{fill:#191919;}.cls-18{fill:#3a3a3a;}.cls-19{fill:#989898;}.cls-20{fill:#2b2b2b;}.cls-21{fill:#9b9b9b;}.cls-22{fill:#3f3f3f;}.cls-23{fill:#c4c4c4;}.cls-24{fill:#5a5a5a;}.cls-25{fill:#e8e8e8;}.cls-26{fill:#e3e3e3;}.cls-27{fill:#e6e6e6;}.cls-28{fill:#aaa;}.cls-29{fill:#a1a1a1;}.cls-30{fill:#dadada;}.cls-31{fill:#f0f0f0;}.cls-32{fill:#303030;}.cls-33{fill:silver;}.cls-34{fill:#888;}.cls-35{fill:#878787;}.cls-36{fill:#787878;}.cls-37{fill:#555;}.cls-38{fill:#c5c5c5;}.cls-39{fill:#797979;}.cls-40{fill:#9f9f9f;}.cls-41{fill:#d4d4d4;}.cls-42{fill:#212121;}.cls-43{fill:#3d3d3d;}.cls-44{fill:#939393;}.cls-45{fill:#4c4c4c;}.cls-46{fill:#717171;}.cls-47{fill:#cacaca;}.cls-48{fill:#d8d8d8;}.cls-49{fill:#d7d7d7;}.cls-50{fill:#353535;}.cls-51{fill:#9c9c9c;}.cls-52{fill:#343434;}.cls-53{fill:#8a8a8a;}.cls-54{fill:#818181;}.cls-55{fill:#2c2c2c;}.cls-56{fill:#999;}.cls-57{fill:#b9b9b9;}.cls-58{fill:#ddd;}.cls-59{fill:#c8c8c8;}.cls-60{fill:#cbcbcb;}.cls-61{fill:#d9d9d9;}.cls-62{fill:#383838;}.cls-63{fill:#cecece;}.cls-64{fill:#4b4b4b;}.cls-65{fill:#747474;}.cls-66{fill:#ededed;}.cls-67{fill:#6e6e6e;}.cls-68{fill:#b0b0b0;}.cls-69{fill:#f4f4f4;}.cls-70{fill:#d0d0d0;}.cls-71{fill:#181818;}.cls-72{fill:#bababa;}.cls-73{fill:#838383;}.cls-74{fill:#616161;}.cls-75{fill:#a6a6a6;}.cls-76{fill:#474747;}.cls-77{fill:#929292;}.cls-78{fill:#d2d2d2;}.cls-79{fill:#070707;}.cls-80{fill:#505050;}.cls-81{fill:#e4e4e4;}.cls-82{fill:#595959;}.cls-83{fill:#e1e1e1;}.cls-84{fill:#535353;}.cls-85{fill:#252525;}.cls-86{fill:#626262;}.cls-87{fill:#323232;}.cls-88{fill:#686868;}.cls-89{fill:#5f5f5f;}.cls-90{fill:#292929;}.cls-91{fill:#3e3e3e;}.cls-92{fill:#262626;}.cls-93{fill:#202020;}.cls-94{fill:#c3c3c3;}.cls-95{fill:#aeaeae;}.cls-96{fill:#707070;}.cls-97{fill:#b4b4b4;}.cls-98{fill:#6a6a6a;}.cls-99{fill:#ebebeb;}.cls-100{fill:#acacac;}.cls-101{fill:#eee;}.cls-102{fill:#d6d6d6;}.cls-103{fill:#e5e5e5;}.cls-104{fill:#ececec;}.cls-105{fill:#f7f7f7;}.cls-106{fill:#c2c2c2;}.cls-107{fill:#c6c6c6;}.cls-108{fill:#e0e0e0;}.cls-109{fill:#cfcfcf;}.cls-110{fill:#a5a5a5;}.cls-111{fill:#727272;}.cls-112{fill:#464646;}.cls-113{fill:#6b6b6b;}.cls-114{fill:#404040;}.cls-115{fill:#8d8d8d;}.cls-116{fill:#434343;}.cls-117{fill:#b5b5b5;}.cls-118{fill:#676767;}.cls-119{fill:#b1b1b1;}.cls-120{fill:#e9e9e9;}.cls-121{fill:#959595;}.cls-122{fill:#bcbcbc;}.cls-123{fill:#dbdbdb;}.cls-124{fill:#f9f9f9;}.cls-125{fill:#f6f6f6;}.cls-126{fill:#7a7a7a;}.cls-127{fill:#adadad;}.cls-128{fill:#8f8f8f;}.cls-129{fill:#a2a2a2;}.cls-130{fill:#fafafa;}</style></defs><g id="Layer_2" data-name="Layer 2"><g id="Layer_1-2" data-name="Layer 1"><path class="cls-1" d="M85.5,8.1C84.85,6.41,86.91,5.75,87,4.33a4.17,4.17,0,0,1,.79-3c1.14,3,4.45,3.18,6.49,5a1.48,1.48,0,0,0,1.41.08c3.51-2.88,8.19-3.4,11.88-5.8,1.85-1.21,3.18-.37,4.41.39,3,1.82,5.76,3.82,9.3,4.42.73.12,1.52.58,2.13,0,4-3.41,8-.29,11.89.12a11.74,11.74,0,0,0,4.5,0c2.29-.61,4.48-1.09,6.72.51s4.12-.54,5.31-1.51c3.89-3.19,7.63-1.05,11.14,0,2.67.78,4.61,2.45,7.81.77,2.07-1.09,5.2-.29,7.74,0,3.1.3,5.75-.51,8.63-1.11,3.64-.77,7.27-1.47,11.24-.66,3.14.64,6.59-.13,9.91.72,1.64.42,3.45,0,4.8,1.5.87,1,1.45-.15,2.17-.51,2.51-1.29,4.93-2.56,8-1.12a6.1,6.1,0,0,0,4.74.07c4.49-2.39,8.07-.31,11.75,1.76-.56,2-2.32,1.56-3.69,1.73a128.59,128.59,0,0,1-18.62.72q-54.22,0-108.45,0c-7.36.22-14.72-.27-22.07.2A2.18,2.18,0,0,1,85.5,8.1Z"/><path class="cls-2" d="M217.93,7.35c6.13-.2,12.26-.38,18.39-.64,1.15,0,2.51.48,3.4-.79h0c.2-.15.4-.4.61-.4a124,124,0,0,1,20.29,1l.75.82a.79.79,0,0,1-.25,1.12c-3.28,1.24-6.68.47-10,.59-3-.54-6.1-.09-9-.83-2.37-.59-2.95,1.8-4.64,2.23a16.62,16.62,0,0,1-4.1.32c-33.14,0-66.28.07-99.42,0-11.45-.34-22.91,0-34.37-.05-3.7,0-7.44-1.2-11.1.28-2.38.48-4.14.33-2.89-2.85h0c7.71-1.48,15.48-.57,23.23-.65a6,6,0,0,0,1.81.56c5.28.1,10.57,0,15.85.05h65c8.46-.07,16.92.12,25.38-.1A3.37,3.37,0,0,0,217.93,7.35Z"/><path class="cls-3" d="M331.84,8.06c1.44,0,2.88.06,4.32,0,1.76-.1,2.41.72,2.22,2.37a2.59,2.59,0,0,0-.51,1.13,2.88,2.88,0,0,1-3.41,2.66c-3.25-.38-6.91,1.7-9.7-1.53a.34.34,0,0,0-.47-.07c-5.44,1.62-10.8,2.29-15.43,1.53a25.36,25.36,0,0,0-5.5-.15c-3.48-.9-6.29-3.08-9.29-4.91a1.59,1.59,0,0,1,.86-.9c4.25-.83,8.55-.2,12.82-.41,7.8.17,15.61-.29,23.4.25Z"/><path class="cls-4" d="M346.27,57.26c1.18,1.51,2.92,2.84.28,4.77-1.43,1,.17,1.72.88,2.48,2.44,2.63,5.32,5.07,4.77,9.24a16.63,16.63,0,0,1-13.21.46,1.81,1.81,0,0,1-.94-1.49c.21-3.13.09-6.26.1-9.39,0-1.33,0-2.66.12-4,.22-1.92,1.18-2.87,3.2-2.35A6.54,6.54,0,0,1,344,58.44c1,.76,1.15-.25,1.5-.81A.77.77,0,0,1,346.27,57.26Z"/><path class="cls-5" d="M8.35,25.76c-1-3-1.76-6.35,2-7.84,3-1.2,4.33-5.25,8.46-4.67.59.08,4.9.51,3.2-3.35-.56-1.28,3-4.32,4.88-4,2.38.4,5,.36,7,2.16,3.74,3.64,3.7,4-1,8a7,7,0,0,1-2.71.48,78.3,78.3,0,0,0-10.83.32c-2.18-.54-3.84.87-5.7,1.51-2.28,1-3.14,2.59-2.51,5.08.41,1.58.26,3.07-2,3A1.17,1.17,0,0,1,8.35,25.76Z"/><path class="cls-6" d="M7,72.35c1.13-1.26,2.27-2.52,3.4-3.79s1.23.25,1.78.58a.88.88,0,0,0,.67.25c5.66-.53,5.66-.53,6.62,4.82a5.07,5.07,0,0,1-.26,4.71c-2.85,2.11-2.86,2.47-.11,5,2.68,2.14,1,3.08-1.08,3.9-1.13.29-1.45-.36-1.51-1.3A18.46,18.46,0,0,1,6.7,75.94C5.91,74.67,5.81,73.46,7,72.35Z"/><path class="cls-7" d="M18,87.79c.7-1.1,3-1.87.73-3.57a1.44,1.44,0,0,1-.2-1.5c.83-1.11,2.25-1.42,3.23-2.36-1.29-.85-1.9,1.85-3.25.59a1.89,1.89,0,0,1,.22-2,6.6,6.6,0,0,0,0-4.43l.52-.33A4.31,4.31,0,0,1,20.52,74c4.47.49,9-.43,13.46.57,1.11.57.9,1.54.78,2.49A2.35,2.35,0,0,0,36.15,80c.7.41,1.9.67,1.34,2-2.58-1.23-4,2.66-6.57,1.49a5.88,5.88,0,0,1-3.6.24,5.22,5.22,0,0,0-5.43,2.06C22.59,90.27,19.51,87.51,18,87.79Z"/><path class="cls-8" d="M68.3,14.73l2.19,0a10.42,10.42,0,0,1,4.6-.55c2,.22,4.43.63,5.89-1.65l1.49-.74c1.66.12,3.44.18,1.58,2.62a8.49,8.49,0,0,1,6.4,0c.85,1.81-.54,2.28-1.73,2.87-1.3-.13-2.53-1-3.91-.34-6.52,1-13.1.07-19.63.61-2.52,0-5.19-1-7.37,1.17-3.45-.1-6.42-2.46-10-2.16-1.55-.12-3.15.17-4.64-.52-1.41-1.81.28-2.57,1.29-3.39s2.13-1.29,1.72-2.84c1.93-1,3.81-.1,5.71.13,2.15,1.87.09,2.38-1.07,3.2,3.47,2,7.12.57,10.67.55A17.29,17.29,0,0,1,68.3,14.73Z"/><path class="cls-8" d="M342.33,58c-2.35-.83-3.47-.19-3.14,2.46a18.52,18.52,0,0,1-.1,3c-2.73-1.52-1.28-4.15-1.7-6.29.16-6.7-.31-13.41.25-20.1.4-1.15.88-2.33,2.3-2.37s2,1.08,2.26,2.3c.62,1.6-1.9,3.23.05,4.83-.88,1.71-.89,3.09,1.2,4a3.43,3.43,0,0,1,1.71,3.08c.25,2.81,1.95,5.43,1.11,8.38l-.32,0c-2,0-1.78-1.7-2.19-2.84s-.16-2.71-.87-4.2C341.58,52.88,343.35,55.55,342.33,58Z"/><path class="cls-1" d="M266.56,6.41c-.68-3.67,2.68-4.07,4.66-5.32,1.63-1,3.56-.38,4.91,1.19,1.53,1.78,3.67,1,5.52,1.23s3.29.91,3.67,2.94c-1.09,1.35-2.64,1.12-4.08,1.14-3.8,0-7.61,0-11.41,0C268.63,7.51,267.37,7.57,266.56,6.41Z"/><path class="cls-9" d="M68.3,14.73C62.66,14,57,16,51.36,14.47c-1-.28-2.74-.21-2.75-1.44,0-1.63,1.47-1,2.56-1s1.27-.92,1.35-1.8c-.26-.18-.34-.34-.24-.5s.18-.24.27-.24c5.11.19,9.77,2.37,14.7,3.36C68,13,68.19,14,68.3,14.73Z"/><path class="cls-9" d="M91,14.89c-1,0-2-.12-3-.13-2.79,0-2.75,0-4-2-.29-.44-1-.62-1.52-.93,1.11-1.16-.06-4.18,3-3.7.16,1.23-.4,3.15,2.08,2.15,1.92-.59,3.89-.36,5.84-.43,2.29-.09,4,.75,4.09,3.17s-2,2.7-4,2.74a6.08,6.08,0,0,1-1.47-.16A2.56,2.56,0,0,1,91,14.89Z"/><path class="cls-10" d="M37.49,82c-.78-1.91-5.35-.82-3.71-4.65,1.95-1,3,1.15,4.61,1.3,4,.92,7.93,2,12,2.83a28.32,28.32,0,0,0,4,2.24c1.32.69,3.16,1.92.42,3.39Z"/><path class="cls-9" d="M45.77,10.49c.88.62,1.57,1.24.27,2.14s-2.6,1.41-3.26,2.84c-3.23,1.9-6.48.88-9.72,0A6.69,6.69,0,0,1,33.93,14c1.5-1.51,3.54-2.91-.16-4.26-.66-.24-.12-1.09,0-1.64l1.63.07c2,1.27,4.18,1,6.35,1.18C43.2,9.4,44.77,9,45.77,10.49Z"/><path class="cls-11" d="M343.4,88.53a.36.36,0,0,0-.44.21,3.54,3.54,0,0,1-4.36-.4,3.3,3.3,0,0,0-3.37-.61c-1.29,2.87-3.7,3.49-6.55,3.23h-.55c-1-.06-2.25.07-2.35-1.2s1.15-1.46,2.09-1.77,2.25-.18,3.25-.77a2.87,2.87,0,0,0,1.43-2c.82-3.79,1.44-4,4.54-1.78a4.12,4.12,0,0,0,1.33.57l1,.14c.63,0,1.25-.1,1.86-.09,1.4,0,3.24-1,4.08.6C346.35,86.48,344.43,87.41,343.4,88.53Z"/><path class="cls-12" d="M343.4,88.53c-.1-1.43,2.38-2.18,1.43-3.32-.55-.67-2.56-.09-3.91-.17-.6,0-1.28,1-1.81-.1a5.81,5.81,0,0,1-.3-5.9c1.68-1.47,3.51-1.26,5.39-.47,1.1,1.07,2.12,2.71,3.48.17a1.63,1.63,0,0,1,2.73-.57C349,82.27,348,86.61,343.4,88.53Z"/><path class="cls-13" d="M133.39,90.05c-1.69-2.85-5.19-2.63-7.52-4.4-.72-.46-1.29-1-1-2,1-1.37,2.41-1.19,3.82-1.07,4.38,1.21,8.46,3.59,13.22,3.33,1.42,1.14,1.17,2.32.13,3.54C139.2,90.1,136.41,91.84,133.39,90.05Z"/><path class="cls-14" d="M312,92.25c-2.23,1.91-4.73,1.58-7.22.75-1.8-.6-3.54-1.35-5.3-2-.75-1.08-3.8-1.42-1.19-3.61a9.08,9.08,0,0,1,4.92,1.27c4.93,2.36,7.77,1.31,10.1-3.53.44-.9.12-2.74,2.13-2.22a2.86,2.86,0,0,1,.47,2.75c-.39,1.15.4.52.76.58a2.11,2.11,0,0,1,1.22,2.91C315.58,89.57,314.06,91.44,312,92.25Z"/><path class="cls-15" d="M9.08,51.32c1-1.93.44-3.25-.67-5.24C6.47,42.58,4.92,38.57,6,34.25c.63-2,0-4.16.76-6.15C6.79,27,7,26,8.35,25.76a.85.85,0,0,1,.12.41,2.32,2.32,0,0,1,.66,1.42c-1.4,2.76,1.33,5,.93,7.68-1,4.19.63,8,1.54,12,0,1.42.15,2.87-.78,4.11A1.31,1.31,0,0,1,9.08,51.32Z"/><path class="cls-16" d="M344.5,79.77c-1.54-1.55-3.47-.54-5.2-.79a2.33,2.33,0,0,1-1-1.6c-.13-1.29-.23-2.58.82-3.6,4-.1,8.11,1.9,11.94-.79.13-.09.73.49,1.1.76A3.16,3.16,0,0,1,350.31,76c-1.46,1-3.37,1.31-4,3.37A1.15,1.15,0,0,1,344.5,79.77Z"/><path class="cls-17" d="M344.29,19.51c.1.62.21,1.24.31,1.86,2.07.76,3.67,1.52,1.42,4-1,1.17-.55,3.1-1.07,4.6-.44,1.26-.8,2.62-2.07,3.4l.06.08a1.25,1.25,0,0,1-1.78-.2c-1.52-4.47-.54-9.06-.6-13.6a1.86,1.86,0,0,1,1.3-2.05C343.25,17.34,343.61,18.69,344.29,19.51Z"/><path class="cls-1" d="M260.6,6.48c-7-.29-14,.94-20.9-.56,1-4.07,4.32-3.33,6.6-2.29,3.46,1.57,6.89,1.39,10.42,1.43C258.18,5.08,259.74,4.81,260.6,6.48Z"/><path class="cls-18" d="M185.74,90.26c-.94-1.88-2.91-2.25-4.55-3.14-.86-.46-1.25-.17-1.22.5.09,2.75-2,1.35-3.14,1.72a1.45,1.45,0,0,1-.54-.73c-.16-1.08-1.6-1.72-1-3a6.68,6.68,0,0,1,6.9-2.12c2,.82,4.29,1.3,5.71,3.23a2.06,2.06,0,0,1-.16,2.91A2.18,2.18,0,0,1,185.74,90.26Z"/><path class="cls-19" d="M7.62,76,8,76c1,4.81,4.92,7.09,8.32,9.86.15.12.14.45.2.68A12.64,12.64,0,0,0,9.25,87c-1.69-.8.09-4.21-3-4C4.33,82,6.52,80.2,5.44,79c.46-.45,2.54.48,1.25-1.46A2.29,2.29,0,0,1,7.62,76Z"/><path class="cls-20" d="M93.68,89.36a7.84,7.84,0,0,1-6.05-.69c-3-1.76-5.86-.81-8.75.22-.66-.74-.31-1.61-.33-2.43,1.46-3.22,4.11-3.56,6.85-2.27,3,1.43,5.89,2.16,9,.5a2,2,0,0,1,.66,1A3.4,3.4,0,0,1,93.68,89.36Z"/><path class="cls-14" d="M294.16,92.16c-2.87.43-5-1.68-7.41-2.57-2.22-.83-3.65-1.94-5.73-.11-.72.64-1.24-.38-1.77-.82a3,3,0,0,1,.69-1.92c2-2.23,3.81-2.75,6.75-1,2.23,1.34,5,2,7.24,3.52C295.5,90.13,295.6,91.08,294.16,92.16Z"/><path class="cls-21" d="M266.56,6.41l3.13.25a149.52,149.52,0,0,0,18.93-.16c5.51-.39,11.11.61,16.68.56a.8.8,0,0,1,0,1.24c-11.37.35-22.72,1.16-34.1.81-3.28-.48-6.79,1.06-9.87-1.16a3.51,3.51,0,0,1,0-.65Z"/><path class="cls-22" d="M280.15,86.9a2,2,0,0,1-.9,1.76c-2.25-1-5-.58-7-2.53-.77-.77-1.58.15-2.2.72-.88.81-1.52.59-2.05-.37-.74-.82-2.54-.58-2.32-2.34a2.67,2.67,0,0,1,1.77-1.06c3.62-1.09,6.87.56,10.19,1.48C278.79,84.89,279.93,85.46,280.15,86.9Z"/><path class="cls-23" d="M125,84.35l.89,1.3a6.66,6.66,0,0,0-3.82,1.18c-2.18,1.52-4,2-6.62.31-2-1.33-3.58,1.65-5.77,1.93-1.75.22-3.07.72-4-1.15,0-3.64,2.68-1.92,4.37-2.2a10.43,10.43,0,0,1,8.27.12C120.55,85.48,122.33,82.93,125,84.35Z"/><path class="cls-24" d="M305.44,7.51c-10.62-.08-21.24-.13-31.86-.24-1.3,0-2.74.5-3.89-.61l15.63-.21h1.48c2.5-.71,5-1.65,7.51,0l20.87.17C315.13,8.11,314,8,313.05,8,310.51,7.92,307.92,8.53,305.44,7.51Z"/><path class="cls-25" d="M6.14,82.65l3.11-.3V87C7.36,88.41,5.81,89.2,4,86.56c-.62-.87-2.66-1.35-3.83-2.39A8.72,8.72,0,0,1,6.14,82.65Z"/><path class="cls-26" d="M10.61,61.79c-1.41.81-4-1.06-4.44,1.92a3.92,3.92,0,0,1-1.38-.43,2.22,2.22,0,0,1-.3-2.66c.52-1.07,1.58-1.88,1.57-3.24,1.45-1.55,3.11-1.41,4.86-.62a2.59,2.59,0,0,1,1.14,2.57A3.88,3.88,0,0,1,10.61,61.79Z"/><path class="cls-27" d="M133.39,90.05c2.79.48,5.36-1.22,8.15-.83,1-.5,2-.19,3-.15,1.36,0,2.81-.28,3.78,1.07a3.9,3.9,0,0,1-3.24,1.17c-1.28,0-4-1.72-3.84,1.87,0,.75-1,.75-1.49.4C137.82,92.06,135,92.13,133.39,90.05Z"/><path class="cls-28" d="M265.69,84.27c.55,1,2.05.94,2.3,2.21-3.69-.92-7.22.31-10.48,1.52-1.49.56-2.41,2.58-4.49,1.27-.18-2.13.59-3.65,2.79-4.22,2.32.82,3.79-2,6.05-1.46C263.09,84.08,264.48,83.64,265.69,84.27Z"/><path class="cls-29" d="M45.77,10.49c-2.19-.06-4.38-.18-6.56-.15-1.76,0-3.1-.46-3.76-2.21,1.46.24,2.89-1.35,4.36-.07a15.91,15.91,0,0,0,7.42,0c2-.47,3.46,1.3,5.32,1.43a2.29,2.29,0,0,1,0,.74Z"/><path class="cls-30" d="M344.29,19.51c-1.52.49-1.58-1.07-2.74-2.09a84.61,84.61,0,0,0-.08,16l-.65,0c-1.4-1.21-1.18-2.87-1.2-4.43-.07-3.67-.05-7.33,0-11a4.44,4.44,0,0,0-1.51-3.9c-.44-1.12-.57-2.19.46-3.1C341.41,13.21,343.67,15.82,344.29,19.51Z"/><path class="cls-24" d="M251.82,89.54c-2.89.83-5.27,2.57-7.72,4.2a2.79,2.79,0,0,1-.84-2.18c.63-3.34,3.53-4.32,6-5.75a4.25,4.25,0,0,1,2.75.09C253.79,87.2,251.89,88.32,251.82,89.54Z"/><path class="cls-10" d="M227.67,91.58c-5.11,2.72-8.89-.37-12.78-2.92,1.14-.3,1.34-.71.76-1.65,2-1.34,3.46.09,5,1,1.14.94,2.3,1.83,3.92,1.12a2.12,2.12,0,0,1,1,.1C226.33,89.94,227.83,90,227.67,91.58Z"/><path class="cls-6" d="M78.67,87.12c.83.51.11,1.11.1,1.66-1.29,2.67-3.2-.35-4.68.5l-2-.7c-1.76-1-4.73.67-5.61-2.42.63-1.46,2-1.39,3.23-1.48C72.72,85.37,76.09,84.8,78.67,87.12Z"/><path class="cls-31" d="M312,92.25c1.83-.91,1.87-5.41,5.49-2.73a8.89,8.89,0,0,1,2.33.55c.84.24,1.64.53,1.82,1.53a.92.92,0,0,1-.52.81c-.34-.12-.87-.46-1-.34C317.41,94.41,314.7,93.73,312,92.25Z"/><path class="cls-32" d="M197,90c-1.11-1.37-2,0-3,.22-1.75.18-2.55-1-3.24-2.27-.12-.93.57-1.6.73-2.45.31-1,.33-2.41,1.74-2.32s1.49,1.25,1.24,2.44c0,.07.48-.6.94-.6a4,4,0,0,1,3.23-.18,2.73,2.73,0,0,1,.43,2.23C198.54,88.15,199,90,197,90Z"/><path class="cls-33" d="M176.57,88.8a2.24,2.24,0,0,1,.26.54,32,32,0,0,1-9.56,1.88c-2.42.15-6.23,1.07-8.51-.22,2-1.55,4.7-1.57,6.85-2.84,3,.62,6,1.33,9-.11A1.54,1.54,0,0,1,176.57,88.8Z"/><path class="cls-34" d="M305.44,7.51c3.22-.64,6.59.52,9.74-.87l1.6,0a26.76,26.76,0,0,0,8.84.09c2.16.06,4.63-1.28,6.22,1.37l-.2.06-.2,0c-7.75.73-15.52.13-23.28.33-.9-.12-1.9.31-2.67-.48A3,3,0,0,0,305.44,7.51Z"/><path class="cls-35" d="M236.08,95l-2.42-1.14c-.45-1.06-1.62-1.72-1.73-3,.31-1,0-2.2.54-3.15.77-1.51,1.9-2.15,3.39-.74.63.76,1.68.86,2.39,1.52a1.5,1.5,0,0,1,.12.93c-.42,1.71,1.13,1.1,1.81,1.49,1,.56,2.49.76,1.5,2.49C239.8,93.89,237.14,91.64,236.08,95Z"/><path class="cls-36" d="M18.76,74.47a7.63,7.63,0,0,1-.55-1.72c-.14-2.09.44-4.84-3.26-2.47a2.05,2.05,0,0,1-2.78-1.14L16.58,67c.59-1.2-.59-2.62.48-3.75a1.74,1.74,0,0,1,1.79-.87,3.72,3.72,0,0,1,1.29,1.76,4.74,4.74,0,0,1,.27,1.11c-.46,3-.16,6.21-1.29,9.17Z"/><path class="cls-37" d="M94.55,85.76l-.12-.91a.7.7,0,0,1,.07-.92c2.32-1.26,3.65,1.57,5.71,1.35,1.66-.08,3.6-1,4.39,1.45a11,11,0,0,1-4.15,2.66,1.33,1.33,0,0,1-1.38.3c-.17-1.31-1.67-.73-2.2-1.52S95,86.84,94.55,85.76Z"/><path class="cls-38" d="M6.14,82.65a9.21,9.21,0,0,1-6,1.52c-.88-4.43,3-4,5.31-5.17C6.77,80,6.51,81.31,6.14,82.65Z"/><path class="cls-39" d="M104.6,86.73a3.76,3.76,0,0,0-4.34-.48c-.48-1.35.44-1.86,1.44-2.09a5.32,5.32,0,0,0,3.14-1.81,3.56,3.56,0,0,1,2.89-.24c1.44.76,3,1.45,2.94,3.46a1.39,1.39,0,0,1-.67,1c-1.39.66-3.61-1.26-4.35,1.4Z"/><path class="cls-40" d="M342.88,33.36c1-2.35,2.17-4.67,1.62-7.39-.09-.42,0-1.26.24-1.32,4.21-1.31.76-2.24-.14-3.28,2-.23,3.59.27,3,2.69-.73,2.94-1.71,5.82-2.73,8.68C344.6,33.45,343.64,33.45,342.88,33.36Z"/><path class="cls-41" d="M17.45,63.18c.54.9-.48,1.88.55,3,.86,1-.72.78-1.42.75.18-1.41-3.93-1.34-1.25-3.61-1.34-1.25-3-1.37-4.72-1.57.28-.82.57-1.63.85-2.45C15.74,59.56,17.26,60.54,17.45,63.18Z"/><path class="cls-42" d="M215.81,87c-.11,1.05,1.17.64,1.48,1.51l-2.4.19c-.47-.27-.93-.55-1.39-.83-1.34-.77-2.53,0-3.78.34-1.53.4-2.92.38-3.18-1.68a7.76,7.76,0,0,1,2.36-1.9,7,7,0,0,1,4.95-.43C215.2,84.53,216.38,85.19,215.81,87Z"/><path class="cls-43" d="M165.51,88.62c-1.67,2.41-4.27,2.22-6.75,2.38l-2.87-.18a.6.6,0,0,1-.22-.59c.06-.21.11-.31.17-.31,1.11-1,3.18-.19,3.87-2a6.13,6.13,0,0,0,.37-1.38c.21-1,.18-2.39,1.51-2.57,1.65-.21,1.69,1.33,2.06,2.41C162.85,88.27,165.48,87.39,165.51,88.62Z"/><path class="cls-44" d="M294.16,92.16c0-.85,1.22-2.06-.74-2.24-.38-2-.1-3.76,2.22-4.18,1.28-.23,2.84-.15,2.53,2-1.52,1.84,1.38,2,1.28,3.25C297.28,89.56,296.16,92.82,294.16,92.16Z"/><path class="cls-45" d="M59.25,86.49l-.84-.8c-1.48-.49-2.68-1.56-4.22-1.92-1.84-.43-1-1.49-.56-2.47,1.15-1.23,3.55.32,4.25-1.91a1.65,1.65,0,0,1,1.51.13,3.43,3.43,0,0,1,.76,2c.09.51.14,1,.27,1.53C61.29,84.59,61.7,86,59.25,86.49Z"/><path class="cls-1" d="M294.31,6.47l-7.51,0c1.38-2.45,4.28-2.57,6.39-3.29S295.21,4.84,294.31,6.47Z"/><path class="cls-46" d="M344.5,79.77c.77-.16,1.55-.5,1.55-1.34,0-3.36,2.19-2.78,4.26-2.47,0,.74.07,1.47.1,2.21A2.45,2.45,0,0,0,348,80.32c-.17.65-1.57,1.32-2.44,1.37S344.32,80.72,344.5,79.77Z"/><path class="cls-47" d="M191,87.87l3,2.36c-2.75,3.11-5.51.64-8.27,0l1.5-.91C188.55,89,189.07,86.62,191,87.87Z"/><path class="cls-43" d="M232.16,90.87c.86.82,3.24.88,1.5,3-2.44.39-4.32-.67-6-2.28-.46-1-2.3-.47-2.23-2,.68-1,1.66-.94,2.68-.77C229.47,89.46,231,89.76,232.16,90.87Z"/><path class="cls-48" d="M66.62,86.56c1.53,1.44,3.85.77,5.46,2-3.79-.33-7.9,1.85-11.32-1.43a4.16,4.16,0,0,1,5.16-1.35A1.77,1.77,0,0,1,66.62,86.56Z"/><path class="cls-48" d="M74.09,89.28c1.4-1.65,3.3,1.38,4.68-.5,2.92-2.59,5.88-2.39,8.86-.11-3.19-.3-6.31-.4-9.16,1.55C76.81,91.36,75.5,89.87,74.09,89.28Z"/><path class="cls-38" d="M10.75,57.23l-4.69.15c-1.34-3.18,2.92-3.59,3-6.06l1.35,0c1.07-.59,1.13.26,1.32.92a2.06,2.06,0,0,1-.34.95C10,54.36,11.23,55.94,10.75,57.23Z"/><path class="cls-49" d="M54.23,81.28c-.1.89-1.35,2.21.8,2.27a3.7,3.7,0,0,1,3.38,2.14c-1.57-.45-1,4.57-3.62,1.41,1.72-2.32-.22-3.1-1.73-3-1.93.17-2.22-1.13-3-2.09A3.14,3.14,0,0,1,54.23,81.28Z"/><path class="cls-50" d="M251.82,89.54c-2-1.4,1.23-2,.49-3.24-.75-3.4-.06-4,4.05-3.43,1.31,1,.65,1.89-.24,2.73-2.43.05-1.78,2.69-3.1,3.67Z"/><path class="cls-9" d="M81,12.55c0,1,0,2.14-1.44,2.16-3,.06-6,0-9.05,0,.65-1.1,1.09-2.91,2.86-1.83C76.07,14.59,78.47,13.35,81,12.55Z"/><path class="cls-51" d="M206.52,86.46a2.26,2.26,0,0,0,3,.92c1.21-.41,2.8-1,4,.45-1.21.14-2.52.06-3.05,1.54-1.63,1.06-3.49.54-5.24.78l-3,.19-.31-.42c-.19-1.08.29-1.61,1.35-1.7C204.9,88.66,204.83,85.92,206.52,86.46Z"/><path class="cls-52" d="M338.56,11l.07,3a35.6,35.6,0,0,1,.16,16.89.92.92,0,0,1-1.26.24c-1.92-4.08-.63-8.4-1-12.6a24.47,24.47,0,0,1,1.3-8.22,4.6,4.6,0,0,0,.52.06A1.09,1.09,0,0,0,338.56,11Z"/><path class="cls-53" d="M66.05,86.29c-1.94-.79-3.49.82-5.29.86-.54-.13-1.3.23-1.51-.66,1.72-1,1.8-2,.13-3.14A1.38,1.38,0,0,1,61,82.42C62.78,83.61,65.55,83.49,66.05,86.29Z"/><path class="cls-54" d="M99,89.34l1.45,0c-2.27,2.63-4.53,2.55-6.77,0l.87-3.6c1,.72,2.82.26,2.82,2.19C96.82,89.68,98.17,89.22,99,89.34Z"/><path class="cls-55" d="M242,93.05c-1-2.07-3.44-.9-4.84-2.12-.39-.33-1.42-.28-.84-1.11.23-.33,1.1-.22,1.67-.31,2.47-.61,4.44.31,6.17,2,0,.74,0,1.49,0,2.24-.4.25-.8.5-1.21.74C242.23,94.23,242.09,93.64,242,93.05Z"/><path class="cls-8" d="M242,93.05l.94,1.43c-1.13-.08-2.23-1.15-3.4.24-.89,1.07-2.22.83-3.42.28-.56-2.39.21-3.35,2.72-2.61C239.82,92.69,240.89,92.83,242,93.05Z"/><path class="cls-30" d="M341.47,33.4l1.47,0c.15,2,1.91,4-.12,5.89-.64-.26-.95-.86-1.35-1.35-.09-1.07.11-2.33-1.25-2.75-.93-.29-1,.85-1.65,1.18a1.61,1.61,0,0,1-.47-2.08c.81-1.2,2.08-.71,3.17-.87Z"/><path class="cls-56" d="M7.62,76a1.51,1.51,0,0,1-.93,1.5C6.12,76.32,4.43,77,3.85,75.9c-1-1.89.36-3.4,3.14-3.55C7.31,73.56,6.23,75,7.62,76Z"/><path class="cls-57" d="M21.89,85.78c.27-2.45,1.06-3.8,4-2.72,1.53.56,3.36.31,5.05.42Z"/><path class="cls-16" d="M148.34,90.14a7.14,7.14,0,0,0-3.67,0c-1.7-1.58-2.22-3,.4-4.22,1.84.64,3.9.89,5.11,2.72a1.16,1.16,0,0,1-.44.86A1.17,1.17,0,0,0,148.34,90.14Z"/><path class="cls-15" d="M197,90c.94-.76.09-2.4,1.45-3,2.12-.26,2.64,1.56,3.63,2.77a1.86,1.86,0,0,0,.11.52C200.45,90.88,198.66,91.76,197,90Z"/><path class="cls-58" d="M205.21,90.15c1.41-2.48,3.49-.5,5.24-.78C209,91.54,207.38,92.73,205.21,90.15Z"/><path class="cls-59" d="M321.09,92.41c0-.21,0-.43.08-.64,2.14-3.09,5-.89,7.58-1.08l-.07.27C326.57,93.61,323.85,93.13,321.09,92.41Z"/><path class="cls-60" d="M335.23,87.73c1-1.56,2.34-.83,3.17-.08,1.4,1.26,3,1,4.56,1.09-.92,1.91-2.12,2.13-3.74.73A6.28,6.28,0,0,0,335.23,87.73Z"/><path class="cls-61" d="M6.79,28.1c0,2.08.51,4.23-.76,6.15-1.75-.73-1.8-1.33-.32-2.7C6.06,31.23,5.91,29.17,6.79,28.1Z"/><path class="cls-62" d="M325.62,6.69a12.57,12.57,0,0,1-8.84-.09A37.35,37.35,0,0,1,325.62,6.69Z"/><path class="cls-53" d="M341.47,38c.81.09,1.11.69,1.35,1.35-.9.65-.32,1.65-.57,2.45C337.11,41.51,342.25,39.14,341.47,38Z"/><path class="cls-33" d="M149.74,89.52l.12-1a1.56,1.56,0,0,1,1-.26c1.64.55,3.51.52,4.81,1.91a1.5,1.5,0,0,1,.22.61A7,7,0,0,1,149.74,89.52Z"/><path class="cls-63" d="M87.75,1.31c-.16,1,.32,2.23-.79,3-1.58-1.21.25-2.64-.25-4-.11-.29.53-.39.76-.06A2.9,2.9,0,0,1,87.75,1.31Z"/><path class="cls-64" d="M47.23,8.1a8.51,8.51,0,0,1-7.42,0A25.28,25.28,0,0,1,47.23,8.1Z"/><path class="cls-65" d="M217.93,7.35V8.1c-8.73.7-17.48.13-26.22.32H126.1c-5.52-.17-11,.35-16.56-.3l-.81-.67c15.2,0,30.41-.12,45.62-.13Q186.14,7.31,217.93,7.35Z"/><path class="cls-66" d="M133.34,9.67c15.54,0,31.08.11,46.62.08,15.8,0,31.6-.17,47.4-.25l11.56,0,.42.51a3.7,3.7,0,0,1-1.6,4.63c-8.18.89-16.39.29-24.59.44-2.72-.59-5.44,0-8.17,0-6.57-.84-13.14.48-19.71,0-5.57-.13-11.13.2-16.7.14-7.35-.49-14.66.32-22,.56-5.87-1.41-11.82-.46-17.72-.45-1.81,0-3.32-.83-5.05-.9-1.4-.06-2.92-.45-2.7-2.29.18-1.59,1.51-2.16,3-2.17A61.69,61.69,0,0,0,133.34,9.67Z"/><path class="cls-8" d="M133.34,9.67c-2.68,1.15-5.53.64-8.3.67-1.56,0-3.09.44-3.23,1.81-.19,1.85,1.64.93,2.65,1.28,7.11,2.46,14.55-.9,21.64,1.35a.84.84,0,0,1-.33,1.15c-2.34,1.11-4.83.64-7.26.68-4.29.09-8.59-.16-12.84.65-4.52-1.06-9.11-.46-13.67-.55-5.44-.11-10.88,0-16.32-.07-1.65,0-3.58.29-4.51-1.74,1-.05,2-.13,3-.13,1.3,0,3-.09,2.64-1.69-.22-1.12-.78-2.9-2.85-2.79s-4.21,0-6.31,0a7.57,7.57,0,0,1,5-1c13,1,26,.2,38.94.29C132.11,9.53,132.73,9.62,133.34,9.67Z"/><path class="cls-26" d="M126,8.16h65.76v.5L126,8.67c-.31-.09-.42-.19-.33-.32A.38.38,0,0,1,126,8.16Z"/><path class="cls-67" d="M238.92,9.46c-.57-.79-2.91-2,.28-2,3.66,0,7.32.41,11,.65,1.89.76,3.87.13,5.79.38.86.11,2-.58,2.5.79-.22.29-.37.71-.75.77-6.31.93-12.62,1.58-18.87-.37Z"/><path class="cls-15" d="M191.7,8.65a2.77,2.77,0,0,0,0-.5l26.21-.05c-6.47,1.36-13,.4-19.53.68C196.16,8.87,193.93,8.7,191.7,8.65Z"/><path class="cls-50" d="M258.49,9c-2.72-.79-5.65.46-8.31-.87L261.37,8l9.74.19a.88.88,0,0,1-.44,1.15C266.59,10,262.51,10.52,258.49,9Z"/><path class="cls-68" d="M126,8.16a1.26,1.26,0,0,0,0,.51c-5.48-.14-11,.86-16.45-.55Z"/><path class="cls-69" d="M294.28,9.54c3.67-.88,5.6,2.1,8.17,3.66-1.13,1.31-2.69,1.09-4.14,1.11-5.07,0-10.15,0-15.22,0-6,0-12,0-18,0-1.7,0-3.47.26-5-.79-.7-3.55-.28-4.32,2.72-4.38,9.44-.16,18.89-.6,28.34-.39A4.62,4.62,0,0,1,294.28,9.54Z"/><path class="cls-58" d="M294.28,9.54c-9.78,0-19.57.2-29.35,0-3-.07-4.59.79-5,3.71a3,3,0,0,1-2.3,1c-6.07.29-12.15-.17-18.21.41a1.75,1.75,0,0,1-1.26-.72c.27-1.44,1.07-2.79.73-4.33,6.54-.27,13.11.16,19.64-.7l12.6-.2c7.74-.39,15.47-.74,23.19.17Z"/><path class="cls-70" d="M283,13.32l19.41-.12c4.54-1,9.08.69,13.58,0,2.78-.42,5.94,1.51,8.34-1.28,2.4,2.35,5.42.91,8.13,1.35s4.52-.26,5.36-2.95l-.3,8.16c-1.68-1.65-2.94-4.2-6-2.71-7.7.21-15.39.05-23.09.1-2.18,0-4.26.15-5.45,2.37-.4.37-1,.55-1.25.08-1.37-2.8-3.84-2.64-6.35-2.46-4.39-.21-8.82.53-13.18-.5C280.38,13.84,282.39,13.86,283,13.32Z"/><path class="cls-71" d="M294.28,8.92l-23.19-.17c0-.21,0-.41,0-.61l34.38-.2,2.22.22c.27.11.37.22.28.34a.33.33,0,0,1-.26.18Z"/><path class="cls-62" d="M307.73,8.68a4.43,4.43,0,0,0,0-.52l23.73-.07c-2.52,1.3-5.22.65-7.84.68C318.31,8.82,313,8.72,307.73,8.68Z"/><path class="cls-72" d="M339.16,73.78l0,3.67a4,4,0,0,1-.88.6,50.59,50.59,0,0,0-8.43.38c-3.33.33-6.38-1.6-9.65-2.14-.64-.1-.85-.84-.3-1.47a8.66,8.66,0,0,1,4.42-1.36c2.83,0,5.67-.25,8.49-.27,2.61,0,3.93-.79,3.89-3.52,0-1.06,0-2.26,1.31-2.82,1.45,2,.73,4.1.4,6.19Z"/><path class="cls-17" d="M342.33,58a14.68,14.68,0,0,1-.92-7.94c.13-.85.23-1.87,1.28-1.93s1.14,1.21,1.35,1.9c.76,2.39,0,5.18,1.91,7.27-.16,1.24,1,3.13-.69,3.56S343.66,58.64,342.33,58Z"/><path class="cls-73" d="M338.44,73c-.38-2,.58-4.19-.64-6.12-2-2.52-1-5.41-1-8.18a3.65,3.65,0,0,1,.5-1.21.82.82,0,0,1,1.14-.23c.56,2-.53,4.18.65,6.12C338.71,66.61,340.22,69.93,338.44,73Z"/><path class="cls-9" d="M18.79,15.54H30.12c2.41,1.09,5-.36,7.43.54.89,3.67-.81,6.42-4.87,6.88a67.4,67.4,0,0,1-11.1.17,3.62,3.62,0,0,1-3.36-2.49A5.87,5.87,0,0,1,18.79,15.54Z"/><path class="cls-74" d="M18.79,15.54c.05,1.74.11,3.48.17,5.22,1.6,4.25.73,8.68.95,13,0,.46,0,.92,0,1.39-.38,5.06.79,10.21-.8,15.21a.88.88,0,0,1-1.24.09c-1.73-3.24-.7-6.75-.92-10.13-.13-1.84,0-3.69,0-5.53.21-3.7-.11-7.43.15-11.13.2-2.75-.77-4.51-3.27-5.52l-.3-.52C15.43,17.32,16.53,15,18.79,15.54Z"/><path class="cls-38" d="M37.54,16.35c-2.45-.51-5.09.69-7.43-.82l3,0c3.24-.75,6.48.31,9.72,0l5.35.09c-1.59,2.44-4.19,2.73-6.73,3.15C40.92,16.61,38.7,17.35,37.54,16.35Z"/><path class="cls-74" d="M8.58,27.49l-.11-1.32c2.07-.11,2.15-1.22,1.85-3C9.88,20.62,10,18,13.54,17.66c.08.12.17.24.25.37a10.53,10.53,0,0,0-1.16,7.35,3.88,3.88,0,0,1-1.84,4.4,1.5,1.5,0,0,1-1,0C9.09,29.22,9.41,28,8.58,27.49Z"/><path class="cls-75" d="M27.28,13c-1.27-.73-3.88.23-3.24-2.49.21-.92.72-1.86,1.68-1.63C28,9.38,26.41,11.65,27.28,13Z"/><path class="cls-76" d="M18.74,78.9,19,81.23a1,1,0,0,1,0,1.36l-.21,1.63c-3.25.71-2.07-2.57-3-3.8C15.11,79.63,17.44,79.05,18.74,78.9Z"/><path class="cls-31" d="M34.56,75.17c-3.83,0-7.67,0-11.51,0-1.17,0-2.51.51-3.44-.74a10.58,10.58,0,0,1,.05-6.13A5.62,5.62,0,0,0,19.57,64l0,0a17.37,17.37,0,0,1,0-12.63c1.09-2.71-.31-5.07-.2-7.62.23-5.33,0-5.34,5.14-5.41.75,0,1.49,0,2.23,0,1.57.14,3.22-.06,4.57,1.05.91,1.19,1,2.66,1.37,4-1,2.19-1.33,4,.6,6.24,1.74,2,2.56,4.78,3.53,7.32A8.69,8.69,0,0,1,36,64.85a2,2,0,0,1-.42.61c-3.67,3.12-3.68,3.12-.78,7a3.2,3.2,0,0,1,.85,2C35.51,75,35.25,75.43,34.56,75.17Z"/><path class="cls-77" d="M34.56,75.17l.83-.79c3.24-.79,5.85,1.75,9,1.65.48.09.92.26,1.38.38.89.25,2.17.24,2.25,1.36s-1.16,1.33-2,1.72c-2.76,1.06-5.5-.69-8.26,0-1.67,0-2.07-2.45-3.94-2.11Z"/><path class="cls-24" d="M26.44,79.53c-.49-.7-1.68-.59-1.86-1.63,1.39-2,3.91-.11,5.45-1.58-.07,1.45.08,2.93-.78,4.23C28,81.18,27.08,80.69,26.44,79.53Z"/><path class="cls-1" d="M19,82.59l0-1.36A7.9,7.9,0,0,0,19.61,80c.54-1.77,2-1,3.07-1.08.49,0,1,.18.94.81-.11,1.13-1,1.63-1.9,2A23.49,23.49,0,0,1,19,82.59Z"/><path class="cls-41" d="M19.57,64c1.58,2.09.52,4.19.13,6.34a25.06,25.06,0,0,0-.09,4.07,2.7,2.7,0,0,1-.49,0C18.34,70.9,19.54,67.48,19.57,64Z"/><path class="cls-78" d="M26.44,79.53l2.81,1c.17,1.32-.23,2.38-1.73,1.94S25.17,81.1,26.44,79.53Z"/><path class="cls-79" d="M44.34,76.8c-3.23.11-6.05-1.31-9-2.42-.25-.28-.49-.56-.75-.82C30,68.9,30,68,35.29,64.7a10.49,10.49,0,0,1,2.79-2.43c1.7-1.1,3.22-1.21,4.57.53a4.35,4.35,0,0,0,.5.55c1.88,1.67,3.51,4.37,6.57,2.7,1.84-1,1.38-7.22-.44-9.36a11.27,11.27,0,0,0-3.64-2.54c-2.66-1.36-5.37-2.61-8-4a9.92,9.92,0,0,1-5.4-6.73c-1-.9-.85-2.07-.76-3.22-1.52-2.58-.82-5.41-.92-8.15,1.47-6.18,4.83-10.88,10.7-13.64l6.85-2.8a17,17,0,0,1,9.62,3,5.54,5.54,0,0,1,3.55,3.2,3.11,3.11,0,0,1-.64,3.14c-2.49,1.79-4.76,3.9-7.53,5.28a2.71,2.71,0,0,1-2.72-.77c-.44-.43-.84-.91-1.29-1.33-1.86-1.8-4.16-3.47-6.59-2.16-2.2,1.18-1.63,3.86-1.19,6.07a9.48,9.48,0,0,0,2.47,4.54,13.7,13.7,0,0,0,1,1,17.23,17.23,0,0,0,3.83,2.22c5.16,2.54,11,4.28,12.84,10.75a52.9,52.9,0,0,1,.21,8.44c-1.19,6.59-4.8,11.62-10.12,15.53C49.43,75.94,47.18,77.28,44.34,76.8Z"/><path class="cls-79" d="M91.17,14.9c3.55,1.54,7.28.61,10.92.66,7.16.08,14.33-.14,21.49-.2,1.09,0,2.76-.63,2.23,1.63-.09,2.37-1.81,3.78-3.22,5.38-1.9,1.22-4,.89-6.12.94s-2.93.93-3,2.92c-.05,2.7,0,5.41,0,8.12,0,1.8,0,3.59,0,5.38.35,10-.08,20.05,0,30.07,0,5.94-.1,6-6.15,6.8a10.55,10.55,0,0,1-1.49-.07c-5.27-.56-5.66-1-5.67-6.14,0-13.76,0-27.51,0-41.26,0-1.59.3-3.24-.67-4.69-1.22-1.76-3.09-1-4.71-1.18-2.84-.34-5.86.8-8.55-1-.91-2.48.49-3.93,2.35-5.16.75-.81,1.28-1.86,2.42-2.26Z"/><path class="cls-4" d="M60,24.64c1.14-.8.89-1.89.65-3-.09-2.67.2-5,3.82-4.66,4-1.54,8.08-.36,12.11-.73,2.94-.27,6,.65,8.83-.72,1.91,2.42,1.21,5.14-1.83,7.1a2.61,2.61,0,0,0,1.92-.16,5,5,0,0,1,1.58.27c2.62.44,4.38,1.5,3.92,4.65-.26,1.81,1.61,2.26,2.63,3.26,1.24,1.2,3.41,2.38.61,4.22-11,.19-22,.45-33.06.33-1.66-.08-3.34.14-5-.39-2-2-.08-2.69,1.26-3.4,1-.52,2.17-.11,3.3-.29-3.83-.32-4.39-1.36-2.28-4.39A21.85,21.85,0,0,1,60,24.64Z"/><path class="cls-9" d="M64.5,17c-.53.27-.07,2.42-1.65.78-.74-.77-1.06.2-.88.7.51,1.5-1,2.07-1.29,3.18l-2.93-3.1C59.08,14.08,62.05,16.67,64.5,17Z"/><path class="cls-9" d="M85.47,22.93c-1.3,1.55-2.39-.75-3.77-.13,1.66-.48,3-1,3.5-2.83.43-1.52,1.45-2.86.24-4.42,1.38-.14,2.52.18,3.09,1.6-.22,1.77-1.93,2.72-2.43,4.34C85.79,21.93,86,22.61,85.47,22.93Z"/><path class="cls-80" d="M338.44,57.3a4.21,4.21,0,0,0-.62,0c-1.45-1.21-1.19-2.9-1.24-4.48-.12-4.44.15-8.9-.27-13.34a42.06,42.06,0,0,1,.37-4.35,16.32,16.32,0,0,1,.18-2.42,2.22,2.22,0,0,1,.95-1.5h.49a2.06,2.06,0,0,1,.29,3l0,2.25Q338.51,46.85,338.44,57.3Z"/><path class="cls-81" d="M37.72,79.45c2.63-1.22,5.39-.28,8.08-.49a19.22,19.22,0,0,1,9-1.1c1.26.16,2.86,0,3,1.94-.39,2.52-2.37,1.16-3.66,1.48l-4.18.77C45.71,82.28,41.89,80.05,37.72,79.45Z"/><path class="cls-31" d="M256.86,83.51c-2.13-.06-5.08-1.46-4.55,2.79l-2.93.1a17.94,17.94,0,0,1-3.19.21c-1-1-2-2.17-3.74-1.31-.63,0-1.65-1.21-1.7.61a3.34,3.34,0,0,1-1.27,2.17,2.33,2.33,0,0,1-1.38.68c-.89-.57-2.27.5-2.92-.88.85-1.87-.24-2.48-1.81-2.67-1.72-.21-3.46-.12-5.17-.42-1.35-.18-2.19,1.39-3.59,1.08-.94-.93-.94-.93-1.79,1.57-.5.68-.8,1.67-2,1.28-1.88,0-2.91-2.43-5-1.76-1.64-3.61-4.41-1.92-6.92-1.46-1.92.81-3.94-.65-5.87.26-1,.27-1.6-1.09-2.63-.56a5.2,5.2,0,0,0-5,.36c-.29.46-.52,1.26-.88,1.32-.8.13-.3-.66-.41-1-.22-.72.34-2.06-.79-2-1.3.05-.8,1.44-.93,2.31-1.71.47-3.69-.6-5.2.92-1.11-1.52-3.15-1.6-4.43-2.84-1.68-1.57-.39-2.1.94-2.39,1.57-.34,3.23-.2,4.77-.76,3.86-.4,7.72-.12,11.59-.22,5,0,10,0,15.07,0,6.42-.52,12.86-.73,19.31-.75h50c4.51,0,9,0,13.55,0,7.56.64,15.13.21,22.7.27,4.16,0,8.29.59,11.75.48-7.41-.6-15.55-.44-23.68-.45-2.8-.11-5.61.22-8.41-.23-.62-.41-1.28-.81-.44-1.62a6.44,6.44,0,0,1,4-.75c8.05.2,16.11-.56,24.16.51,3.38.45,6.89-1,10.3.27a7.47,7.47,0,0,1,0,6.14c-.8-.11-1.94.45-2.24-.7s-.66-1.75-1.89-1.45c-1.49.37-1,1.55-.81,2.4.32,1.52-.47,2.28-1.6,2.93-.76.65-1.1-1.54-2.52-.08-1.24,1.27-3.9,1.09-5.69-.53-1.14-.83-2.15-1.9-3.64-2.13a2.62,2.62,0,0,0-1.14-.51c-1.86,1.25-2.72.09-3.45-1.4-1.47.73-.87,2.42-1.68,3.63-2.31,3.45-4.71,4.76-8.73,3.39-2.26-.77-4.46-1.72-6.69-2.59-1.42-2.27-2.68-2-3.81.23-.33.65-.63,1.32-.94,2-2.35-2.34-6-2-8.48-4.28-1.84-1.64-3.1,1.1-4.79,1.26-2.8-1.81-6.47-2.59-11.29-2.54-.49,0-1-.65-1.49-1-2.21-.31-4.45.24-6.65-.28C259.43,83.2,258.27,84.44,256.86,83.51Z"/><path class="cls-82" d="M323.46,86.45c.44.16,1.08.19,1.27.5,1,1.66,2.5,1.34,3.91.88s.69-1.86.85-2.85c.08-.55-.24-1.21.67-1.66,1.85,1.07-.35,3.62,1.55,4.61-1.48,1.35-3.77,0-5.27,1.73l2.31,1c-2.51.46-5.16,0-7.58,1.08-.35-1.15-1.48-.57-2.17-1-.43-1.11.4-1.82.87-2.64a2.49,2.49,0,0,1,.78-.63A5.42,5.42,0,0,0,323.46,86.45Z"/><path class="cls-67" d="M338.25,84.75c0-1.92,0-3.84,0-5.76a1.3,1.3,0,0,1,.12-1.56l.8,0c0,.51.07,1,.11,1.53-.06,2-.13,4-.19,6Z"/><path class="cls-83" d="M188,82.08c-1.29,1-2.82.55-4.23.56s-1.37.63-1,1.6c-3.07-1.26-5.34.44-7.63,2-3.88,2.2-8,.4-11.94.64-1.14-.52,0-2.25-1.61-2.7-1.23,1.11.23,3.07-1.08,4.15-1.3-.42-.53-2.57-2.25-2.63a23.94,23.94,0,0,1-6,.11l-1.51,0c-2.44,1-4.48-.79-6.74-1a7,7,0,0,0-2.39,1.51,7.63,7.63,0,0,0-2.2-.21c-4,.84-7.25-1.13-10.58-2.77.21-1.72,1.6-1.64,2.78-1.74,1.85-.15,3.71-.06,5.57-.08,6.19,0,12.38,0,18.56,0a13,13,0,0,0,4-.55c8.29-.43,16.59-.13,24.89-.17C185.89,80.9,187.18,80.9,188,82.08Z"/><path class="cls-84" d="M137.09,82.55c-2.72.65-5.65-.78-8.26.88-1.28.31-2.85-.58-3.85.92a20.6,20.6,0,0,0-6.6,2.71c-.64-.67-1.29-1.33-.8-2.38a3.24,3.24,0,0,1,2-1.29c-1.78-.11-3.94,1.1-5.16-1.34a1.82,1.82,0,0,1,.89-.8c6-.92,12.08-.23,18.11-.39a7.51,7.51,0,0,1,3.27.59A.79.79,0,0,1,137.09,82.55Z"/><path class="cls-36" d="M141.61,86.41a2.05,2.05,0,0,1,2.11-2.47c-.27,1.3,2.31,1.08,1.46,2.7-1.73,1-1.12,2.23-.51,3.52l-3.13-.94C141.85,88.29,143.13,87.39,141.61,86.41Z"/><path class="cls-85" d="M315.27,83.28c1.43,1.5,2.56.94,3.56-.52.83,1.13.62,2.46.71,3.73-1.25,2.33-2.33-1-3.53-.11-.1.34-.09.81-.32,1-.63.48-.75.06-.7-.52C315.09,85.65,315.18,84.47,315.27,83.28Z"/><path class="cls-86" d="M316,86.38c1.43-1.58,1.84.93,2.92.73.7.2,1,.86,1.44,1.32-.45.8-.91,1.59-1.37,2.38l-1.54-1.29A2.75,2.75,0,0,0,316,86.38Z"/><path class="cls-42" d="M18.06,34.17l.06,16.39c-1.39,3.06-2.92,3.14-5.69.31-1.18-1.08-1-2.75-1.82-4C9.42,43,8,39.1,9.14,34.92c.63-.94,1.72-1.61-.14-2.76s-1-2.23.91-2.52h0C13.23,30.05,16.82,30,18.06,34.17Z"/><path class="cls-87" d="M9.91,29.64c-.75.64-2.34,1.06-.45,2.28,1.73,1.12,1.87,2.22-.32,3-.7-2.44-2.59-4.79-.56-7.43C11.84,26.48,9,29.24,9.91,29.64Z"/><path class="cls-88" d="M10.61,46.85c1,.81,1,2.38,2.3,3,.18,1.41.7,3-1.73,2.85a1.21,1.21,0,0,0-.75-1.32Z"/><path class="cls-85" d="M163.17,86.91c.65-2.58,2.4-.7,3.57-.76,2.78-.13,5.58.06,8.37.12.5.84,3.38.3,1.46,2.53-.62,0-1.4-.23-1.84,0-3.16,2-6.19,1.57-9.22-.23C164.73,88.05,163.12,88.61,163.17,86.91Z"/><path class="cls-89" d="M187.17,87.08c1.34-2.53,3.13-2.49,5.2-.92.07,1-1.05,1-1.36,1.71-1.56-.28-2.22,1.71-3.77,1.48C187.6,88.58,188.34,87.79,187.17,87.08Z"/><path class="cls-48" d="M94.55,84.21a2.34,2.34,0,0,0-.12.64c-2.34,2.83-4.64,2.75-7.74.75-2.68-1.73-6-2.24-8,1.52l-8.84-1.53a4.32,4.32,0,0,0-2.07-.44c-1.71-.21-1.57-1.1-.62-2.16,4.12-1.28,8.35-.41,12.51-.6,3.09-.13,6.18,0,9.27,0C90.92,82.6,93.27,81.78,94.55,84.21Z"/><path class="cls-90" d="M260.66,82.26c2.13,1,4.79-1.24,6.71,1.09-.33.73-1,.77-1.68.92-1.24.53-2.47,1.09-3.69,0C261.82,83.38,260.33,83.44,260.66,82.26Z"/><path class="cls-91" d="M117.62,85l.76,2.07c-2.68-1.88-5.52-1.39-8.38-.54,0-.31.11-.62.16-.93.79-1.15,1-2.84,2.9-2.91a3.41,3.41,0,0,1,1.1.12C115.48,83.27,117.3,83,117.62,85Z"/><path class="cls-92" d="M10.75,57.23c-.52-1.43-2.35-2.81-.13-4.32a83.3,83.3,0,0,1,7.74,5c.76,1.1.29,2.42.65,3.6a.82.82,0,0,1-.22.94l-1.34.7c-1.05-2.76-3.94-2.64-6-3.84C11.29,58.62,11.69,57.7,10.75,57.23Z"/><path class="cls-93" d="M260.66,82.26c.09.89,1.94.59,1.34,2-.88.21-2-.45-2.56.88-.8,2-2.1,1.09-3.32.5.25-.69.49-1.39.74-2.09Z"/><path class="cls-8" d="M338.59,34.16l-.29-3L338.63,14c2-.12,2.07,1.17,2.06,2.65q-.06,6.62,0,13.25c0,1.19-.33,2.47.58,3.53C340.61,34.59,339.51,34,338.59,34.16Z"/><path class="cls-61" d="M246.53,86.38a2.16,2.16,0,0,1,2.85,0,13.06,13.06,0,0,0-5.27,5.1l-6.17-2c.06-.25.11-.5.16-.75l.71-.88c1.48-.07,2.89-.62,4.38-.64C244.44,87.49,245.47,86.86,246.53,86.38Z"/><path class="cls-94" d="M220.83,88.72l1.43-1.62c1,.38,2.49-1.14,2.92.9a1.6,1.6,0,0,1-.51,1.37C223,91.18,221.92,90,220.83,88.72Z"/><path class="cls-95" d="M224.67,89.37l.06-1.6c.34-.79.75-1.52,1.74-1.61a3.64,3.64,0,0,1,2.3,1.9,1.3,1.3,0,0,1-.4,1.39,4.81,4.81,0,0,0-2.93.1Z"/><path class="cls-84" d="M66.64,84.23c.8,1.07,2.65-.31,3.19,1.36-1.08.29-2.47-.44-3.21,1a.77.77,0,0,1-.57-.27c-1.25-1.87-3.92-1.69-5.17-3.55C63.37,81.05,65.34,81.37,66.64,84.23Z"/><path class="cls-50" d="M200.54,84.66c.8-.83.8-.83,2.41,1,2.27.56,1.28,1.92.77,3.15-.79-.05-1.45.1-1.61,1l-3.63-2.77v-2C199,84.12,200,85.69,200.54,84.66Z"/><path class="cls-96" d="M200.54,84.66c-.42,1.54-1.36.37-2.07.41l-3.09.49C196.81,83.59,198.68,84.13,200.54,84.66Z"/><path class="cls-9" d="M228.37,89.45l-.1-1.72a.7.7,0,0,1,.41-.8c.6-.23,1.42.44,1.9-.45-.78-.78-1.86-.08-2.67-.58-.94-.69-.82-1.54-.36-2.43,1.72.86,3.58.73,5.4.68,3.05-.09,3.79,1.12,2.23,3.73-.17-.43-.32-1.21-.51-1.22-.95,0-1.23.7-1.7,1.44-.56.91,1.49,2.51-.81,2.77C230.79,90.68,229.17,91.16,228.37,89.45Z"/><path class="cls-83" d="M18.79,62.48a1.09,1.09,0,0,0-.06-.67c-.13-3.12-1.36-6.15-.72-9.32a9,9,0,0,1,.75-1.88L19,35c3.35-2,7-1,10.47-.81,1.84.13,1.68,1.78,1.69,3.17,0,1.62-1.07,1.7-2.25,1.68a2.94,2.94,0,0,0-1.79.35l-1.85,0c-6,0-7.47,2.58-4.63,8,.37.72,1.42,1.31.78,2.25C18.38,54.13,20,59.2,19.6,64Z"/><path class="cls-78" d="M94.55,84.21c-1.7-1.12-3.66-.68-5.51-.9a1.08,1.08,0,0,1,.6-1.16c5.09-.55,10.2-1.48,15.19.57.21,1.25,0,2-1.57,2.16-1.09.08-2.57-.3-3,1.37C97.84,87,97,83.49,94.55,84.21Z"/><path class="cls-97" d="M99,89.34c-.88,1-2,1.07-2.75.15S96.33,88,97.37,88C97.65,88.72,99.19,88,99,89.34Z"/><path class="cls-98" d="M104.83,82.72l-15.63,0a.91.91,0,0,1,.4-1.23c3.34-1.37,6.83-.48,10.25-.62,3.69-.15,7.4-.06,11.1,0,1.34,0,2.76-.1,3.72,1.16,0,.19,0,.39,0,.58a1.22,1.22,0,0,1-.63.67l-.89.11c-1.61-.72-3.49.71-5-.63Z"/><path class="cls-28" d="M108.11,82.78c1.71-.08,3.5-.76,5,.63-1.44.11-1.4,2.24-3,2.18C110.32,84,108.29,84.08,108.11,82.78Z"/><path class="cls-37" d="M203.72,88.79c-.14-1.07.47-2.34-.77-3.15.11-.53.1-1.7.31-1.5,1.67,1.58,4,.14,5.63,1.36-.43,1.22-1.47.89-2.36,1C205.83,87.52,205.3,88.79,203.72,88.79Z"/><path class="cls-85" d="M158.86,84.93c.55-.51,1.18-1.16,1.4.19.17,1.07.15,2.16.22,3.24-.72,2.91-3.18,1.31-4.81,1.85a8.68,8.68,0,0,1-5.19-1.45c-.55-1.24-1.06-2.47.17-3.62L152,85c.9,1.12,2.06,2.15,3.36,1C156.44,84.93,158.32,87.26,158.86,84.93Z"/><path class="cls-99" d="M114.67,82.05l-25.4,0a6,6,0,0,1-3.6.63c-8.3,0-16.6.17-24.9-.37a2,2,0,0,1-1.35-.48l-.31-2c.13-2,1.8-1.72,3-1.83,2.33-.22,4.67-.06,7-.09,2.75,0,5.47.39,7.89-1.85a4,4,0,0,1,5.69.15,5.42,5.42,0,0,0,7,0,7.37,7.37,0,0,1,3.36-.4A3.13,3.13,0,0,1,95.55,77c.49,1.65,1.78,1.79,3.23,1.74s3.21,0,4.83,0a16.45,16.45,0,0,1,6.86.91,4.49,4.49,0,0,0,4.49-.52c6.2-.8,12.4-.45,18.6,0a1.67,1.67,0,0,1,1,1.53,1.77,1.77,0,0,1-.5,1.16Z"/><path class="cls-100" d="M93,76.6l-3.76.26a10.13,10.13,0,0,1-7.51.52c.35-3-2.44-1.27-2.58-1.16-5.41,4.42-11.77,2.27-17.74,2.66-.88.05-1.76.07-2.29.93H57.89C54,77.87,49.82,79.4,45.8,79l1.6-1.28c-1-.55-2.23,0-3.06-.88a19,19,0,0,0,6.79-2.92c4.3-.95,8.64-.16,13-.29a16.05,16.05,0,0,1,5.22.15c6,.9,12.09.22,18.14.38,2.09.06,4.21-.31,6.25.43C95.69,76,93.81,76.12,93,76.6Z"/><path class="cls-40" d="M59.42,81.81,89.27,82a4.93,4.93,0,0,0-.07.66,1.32,1.32,0,0,1-.15.62c-6.34,0-12.68,0-19,.07-1.16,0-2.54-.54-3.39.85-1.55-1.89-3.64-1.75-5.76-1.49l-1.5.61C59.39,82.84,59.41,82.32,59.42,81.81Z"/><path class="cls-62" d="M18.76,50.61l0,1.46c-.81,1.93.31,4.08-.67,6-2.77-1.3-5.85-2.15-7.45-5.15a.74.74,0,0,1,.56-.24c1.41-.45,1.57-1.65,1.73-2.85,1.39,2.66,3.05,3.44,5.21.74Z"/><path class="cls-101" d="M337.81,31.16l-.24,1.51a2.8,2.8,0,0,1-3.15,2.47c-3.1,0-6.2.32-9.26-.23-.1-2.11-2.41-2.79-3-4.64-1-3.05.24-5,4.1-6.57,1.47-.6,3.66-.28,3.78-2.75a31.36,31.36,0,0,1,2.33-6.16c4-1.94,4.55,1,5.18,3.71Q337.68,24.83,337.81,31.16Z"/><path class="cls-37" d="M150.65,85.14c-.05,1.21-.11,2.41-.17,3.62l-.62-.2c-1.77-.14-3.18-1.14-4.68-1.92-.07-1.12-2.56-1-1.46-2.7C146.17,83.54,148.05,86.43,150.65,85.14Z"/><path class="cls-102" d="M185,14l20.19,0a1.26,1.26,0,0,1,.08,1.64,3.75,3.75,0,0,1-2.14.75c-1.94.47-5-1.27-5.17,2.68a18.07,18.07,0,0,0,.23,3.67,4.7,4.7,0,0,1,0,1.06c-.56,3.49.4,6.87.7,10.29a2.94,2.94,0,0,1,0,1.53c-.52,1.2-.17,1.89,1.2,2a27,27,0,0,0,3.36-.1c8-.12,16.07-.07,24.1,0a50.06,50.06,0,0,0,5.05,0c.94.55,3,.61,1.11,2.44a4.22,4.22,0,0,1-1.24.37,37.48,37.48,0,0,1-4,.18c-9.47.18-19,0-28.41.11-1.43,0-1.83.58-1.81,2,.18,9.09-.25,18.18-.44,27.26a2.64,2.64,0,0,1-.55,1.37.81.81,0,0,1-1.17.08c-1.36-1.73-1-3.78-1-5.73,0-13.89,0-27.78,0-41.67,0-6.22,0-6.23-6.27-6.57a9.82,9.82,0,0,1-2.22-.31,3,3,0,0,1-1.68-1.14A1.56,1.56,0,0,1,185,14Z"/><path class="cls-63" d="M283,13.32l-1.48,1.39c-1.63,1.61-3.71,1.09-5.63,1.13-3.2.07-6.43-.2-9.38,1.43-9.23-1.29-18.5-.39-27.74-.55-.74,0-1.48.1-2.22.07-1.91-.24-3.72-1.09-5.69-1-6,0-12,.28-17.94-.07a1.11,1.11,0,0,1-.27-1.74l25.43,0c7.22-1.21,14.51-.52,21.77-.75Z"/><path class="cls-16" d="M146.1,15.49c0-.23,0-.47,0-.71,7.49-.21,14.94-1.07,22.44-.74.91,1.25,3.42-1,3.69,1.68-1.84,1.24-4.07.64-6,1.3a13.51,13.51,0,0,1-5.11,0c-2.31-.75-4.7-.39-7-.44C151.35,16.43,148.53,17.37,146.1,15.49Z"/><path class="cls-58" d="M172.26,15.49c-.88-1.4-2.84-.06-3.73-1.45H185v1.47C179.25,18.34,179.25,18.34,172.26,15.49Z"/><path class="cls-58" d="M212.69,14l0,1.46c-2.51,1.43-5,1-7.52,0,0-.48,0-1,0-1.43C207.7,14.06,210.19,13.26,212.69,14Z"/><path class="cls-12" d="M146.1,15.49l8.22,0a1.69,1.69,0,0,1,.45,1.52,5.78,5.78,0,0,1-.35,1c-1.39,3.28-3.31,5.82-7.64,5.17a3.43,3.43,0,0,0,1.49.1c4.71-.23,4.89,0,3.29,4.56a6.31,6.31,0,0,0,0,4c.34,1.26.45,2.47-1.13,3.06-10.75.52-21.5.37-32.24.1-.86-.28-1.92-.82-1.41-1.74,1.88-3.41,1.58-7.92,5.28-10.39.57-.38.52-1.08.73-1.64a13.71,13.71,0,0,1,3-4.27,4.88,4.88,0,0,1,3.95-1.5C135.21,15.57,140.66,15.5,146.1,15.49Z"/><path class="cls-79" d="M332.38,14.79c.83,2.27-1.1,3.85-1.48,5.82s-1.64,2.43-3.46,2.48c-2.83.06-5.64-.23-8.5.09-2.5.28-3.51,1.31-3.38,3.75.09,1.72-.06,3.45,0,5.17.07,6.94.08,6.85,6.91,7,3.3.09,6.7-.78,9.92.66,1.5,3.46,1,5.27-2.31,8.36-3.51,1-7.12.42-10.68.53-2.65.07-3.82,1-3.78,3.69.1,6.53-.26,13.06.09,19.59a2.6,2.6,0,0,1-1.39,2.27c-2.51.94-5.12.35-7.69.52-4-.57-4.37-.91-4.38-5.29-.05-14.12,0-28.25,0-42.37a15.78,15.78,0,0,0-.38-5.17,3.64,3.64,0,0,1,.65-3.42c-.24-2.58.68-3.62,3.51-3.58C314.78,15,323.58,14.86,332.38,14.79Z"/><path class="cls-69" d="M266.65,17c.74-2,2.3-2.38,4.29-2.31,3.53.13,7.08,0,10.62,0l14.21.09c4.26,2.58,4.5,4,1.34,7.89a4.53,4.53,0,0,1-1.8.5c-6.84.47-13.68.76-20.53.81A9.5,9.5,0,0,1,269.44,23c-1.52-1.06-4.31,1.08-5-2C264.41,19.23,264.81,17.72,266.65,17Z"/><path class="cls-103" d="M297.28,22.23c1.87-3,.87-5.34-1.51-7.43,3-.08,6.34-.91,6.7,3.7.06,1,.11,1.92.16,2.88a1,1,0,0,1,0,1C300.1,23.83,299.31,23.81,297.28,22.23Z"/><path class="cls-104" d="M314.5,73.73l.66-1.35c-.64-4.06-.11-8.16-.28-12.23a2.65,2.65,0,0,1,1.61-2.7,2.83,2.83,0,0,0,1.57-1.94c1.44-5.32,4.14-8.92,10.47-7.48a1.33,1.33,0,0,0,1.63-.54c1-2.36,3.06-4.41,2.29-7.34-.38-1.22.63-1.4,1.36-1.8a4.86,4.86,0,0,1,3,.31c1.48,1.7.75,3.76.82,5.65.14,4.31.12,8.63.16,12.94l-.28.78c-3.57,0-7,1.24-10.63,1a3.75,3.75,0,0,0-4,2.76c-.55,1.73.88,2.29,2,3,1.94,1.3,1.14,2.44-.41,3.33-.86.5-2,.37-2.82.89-1.4.85-1.55,1.82-.19,2.9.91.72,2.5.68,2.64,2.28l-4.37,1a2.58,2.58,0,0,1-2.25.65C316.33,75.51,314.67,75.64,314.5,73.73Z"/><path class="cls-105" d="M324.19,74.28c-1-.45-2.05-.84-3-1.36s-2.39-.73-2-2.24,1-2.87,2.88-2.92c.62,0,1.24,0,1.86-.1a1.5,1.5,0,0,0,1.41-1c.19-.79-.54-.85-1.1-1.13-3.49-1.75-3.93-5.15-.31-6.41,4.21-1.48,8.94-2.67,13.62-1,.09,3,.18,5.93.26,8.89-.39,7.07-.39,7.12-7.38,7.49C328.35,74.53,326.26,74.33,324.19,74.28Z"/><path class="cls-70" d="M317.45,75.26l2.37,0c4.7.48,9.08,4.06,14.15,1.23,1.43-.79,2.7,1.64,4.42.92L338.27,79l-38.69,0c-3.92,1.81-8,.83-12.05.67-1.27,0-2-.94-1.18-2.34a4.29,4.29,0,0,1,3.28-1.54c7.06.09,14.09-.69,21.14-.63C313,75.06,315.19,78,317.45,75.26Z"/><path class="cls-83" d="M41.28,18.36c-4.34,3.47-8.06,7.39-9.8,12.82-.59.7.05,1.76-.7,2.41-1.22.12-1.72-.74-2.16-1.63A3.5,3.5,0,0,0,25,30c-2.93-.13-4.12,1.87-5.11,4.13a.62.62,0,0,1-.89,0q0-6.67,0-13.36a3.6,3.6,0,0,0,3.18,1.5c3.22-.11,6.45.1,9.66-.07,3.58-.19,5.43-2.33,5.74-5.84C38.71,17.17,41.91,14.23,41.28,18.36Z"/><path class="cls-87" d="M18.06,34.17c-1.91-3-5.51-2.91-8.17-4.53,1.92-1.19,2.35-2.71,1.8-5-.6-2.46-1-5.2,2.1-6.65,4.27-.77,4.6,1.63,4.36,5C17.88,26.71,18.07,30.45,18.06,34.17Z"/><path class="cls-106" d="M19,34.12a3.11,3.11,0,0,0,.61,0c2.32-1.64,4.95-.88,7.47-1,1.19-.13,2.33.49,3.53.24.21-.76.06-1.67.87-2.2q0,4.49,0,9c-1.32-1-2.86-.77-4.35-.79.41-.23.81-.61,1.24-.64,1.33-.09,2.4-.25,2.34-2-.09-2.13-1.6-1.78-2.89-1.78C24.9,34.9,22,35,19,35Z"/><path class="cls-61" d="M32.26,43.37c3,5.08,8.16,7.29,13.24,9.62,5.89,2.71,7.43,6.41,5.94,12.71-.5,2.1-1.42,2.59-3.36,2.12s-4-1.29-5-3c-1.69-3-3.4-2.94-5.75-1a6.85,6.85,0,0,1-2,.81c3.26-5.78-.17-10.75-3.08-14.82C30.08,46.91,29.92,45.56,32.26,43.37Z"/><path class="cls-8" d="M60.67,49.88c-2.41-5.58-8-7-12.65-9.71-.07-2.21,2-1,2.81-1.72a10.91,10.91,0,0,1-6.6-.52l-.75-.67A2.5,2.5,0,0,1,46,34.05c3.38-.23,6.81-.66,10.11.6,1.35,1.7,3.19,2.14,5.28,2.14,9.84,0,19.68,0,29.52,0,1.57,0,3.31.16,4.3-1.57a2.91,2.91,0,0,1,1-.8c4.38-.29,4.5-.2,4.5,4q0,13.24,0,26.49c-2.3,1.41-2.29-.94-2.38-1.81-.33-3-1.42-6-1.49-8.89-.08-3.26-1.61-2.53-3.32-2.57A6.81,6.81,0,0,1,90.16,51a1.11,1.11,0,0,1-.45-1c1.44-2.23,4.82-2,5.77-5.25,1.15-3.93,1.26-4.33-2.77-4.35q-16.9-.09-33.85-.21c.51.45,1.33.61,1.38,1.45.14,2.16,1.46,3.56,3,4.93,1.06,1,2.24,2.11.92,3.75A3.11,3.11,0,0,1,60.67,49.88Z"/><path class="cls-99" d="M63.76,74.48c-4.21,0-8.46.48-12.63-.6a24.15,24.15,0,0,0,9.68-14.34c.72-2.29.28-4.63.3-6.94,0-1.7.64-2,2.27-2.49,3.6-1,7.1.32,10.61-.16,2.67,1.67,1,3.84-.4,4.18-5.84,1.4-5,7.08-7.23,10.68-1,1.69-.58,4.29-2.54,5.88C62.44,71.81,64.41,73.21,63.76,74.48Z"/><path class="cls-63" d="M40.69,32.67c-1.36-2.25-.33-4.54-.1-6.81.15-1.5,1.26-1.63,2.43-1.59a9.33,9.33,0,0,1,7.32,3.63c.74.93,1.24,2.25,2.86,1.64.49.05,1-.08,1.48,0,1,.11,2.3.11,2.24,1.34s-1.43,1.21-2.38,1.26c-2.6.12-5.25,0-7.18,2.22C45,34.49,42.26,35.81,40.69,32.67Z"/><path class="cls-3" d="M47.35,34.09c.15-2.36,1.51-3.08,3.73-2.92,1.7.12,3.42,0,5.31,0-.86-1.31-2.63-.26-3.19-1.65A35.18,35.18,0,0,1,60,24.64c-.09.6,0,1.34-.31,1.78-2,2.72-3.09,4.81,2,3.72.64-.14,1.71.17,1.59,1.08s-1.13,1.14-2,1c-2.29-.46-4.46-.59-5.73,1.94A16.78,16.78,0,0,1,47.35,34.09Z"/><path class="cls-107" d="M75,50.68c-3.51,1-7-.23-10.5-.17-2.26.05-3,.76-2.91,3,.07,2,.61,4.17-.77,6,0-3.22.41-6.45-.14-9.66l3.85-.06a4.34,4.34,0,0,1,3.42-1.13q9.3-.15,18.59,0A4.39,4.39,0,0,1,90,49.84c0,.24,0,.48,0,.72A21.43,21.43,0,0,1,75,50.68Z"/><path class="cls-94" d="M47.35,34.09l8.21,0,5.18.11a.73.73,0,0,1-.24,1.07A3.7,3.7,0,0,1,56.32,35c-3.07,0-6.14.09-9.2-.06a3.24,3.24,0,0,0-3.64,2.34,7.07,7.07,0,0,1-2.79-4.59C42.65,34.37,45,34.26,47.35,34.09Z"/><path class="cls-94" d="M44.23,37.93c3.14.1,6.32-.43,10.14.58-2.46,1.19-4.81,0-6.35,1.66C46.37,40.08,45.45,38.76,44.23,37.93Z"/><path class="cls-27" d="M107.17,76c5.22,0,5.51-3.07,5.36-7.35-.34-9.74-.11-19.51-.11-29.27a2.33,2.33,0,0,1,2.72-.39c1.33,3.41,2.29,7,3.48,10.41.63,1.82.84,4.81-1.12,6.64-2.11,2-2.55,4.4-2.6,7.05a23.82,23.82,0,0,1-.5,5.9c-.82,3,.13,4.76,3.36,5.12a6.6,6.6,0,0,1,2.44.86c4.14.73,8.25,1.47,12.4-.19,2-.82,3.19.58,3.38,3.76-.62,1.17-1.68.71-2.64.76-6.23.33-12.36-.91-18.55-1.22a13.87,13.87,0,0,0-3.7.12,5.72,5.72,0,0,1-2.93-.25A1.62,1.62,0,0,1,107.17,76Z"/><path class="cls-108" d="M122.77,21.26c.23.77,1.13,1.55.17,2.33-1.32,1.07-4.89,1.05-1.67,4.13.52.49-1.46.14-1.85,1-.8,1.8-1.65,3.59-2.49,5.38-1.49,1.37-3,1.16-4.51.05-.06-3.43,0-6.87-.23-10.29-.12-2,1.09-1.74,2.3-1.91C117.24,21.61,120.14,22.92,122.77,21.26Z"/><path class="cls-40" d="M107.17,76l.86,1.46c-.74,1.57-2.11,1.48-3.5,1.33-1.5.35-1.31-2.28-3-1.65-2.18-.64-4.19,2.11-6.41.3-.51-.83-1.43-.61-2.17-.85.49-.43,1-.86,1.48-1.28,4.38-.9,5.6-3.8,5.09-7.87a2.36,2.36,0,0,1,.87-2c0-9.33-.12-18.66-.05-28,0-3.57-2.66-2.24-4.37-2.73a.61.61,0,0,1,.08-.92c.88-.61,2.09-.55,2.84-1.41.93-1.76.27-3.64.44-5.44.14-1.44-.16-3,1.12-4.11.89,10,.51,20,.69,30,.11,6.18.24,12.38,0,18.56-.12,3,.37,4.49,3.69,3.85A1.92,1.92,0,0,1,107.17,76Z"/><path class="cls-109" d="M112.42,34.17l4.51-.05h34.35a2.53,2.53,0,0,1,3-.24,1.91,1.91,0,0,1,.35,2.3c-1.78,1.09-3.43-.88-5.2-.22-1.07,0-2.13.07-3.2,0-7.93,0-15.86.21-23.78,0-1.63.22-3.11-.66-4.71-.72.6.27,2.29.73,1.06,1.17-2.49.89-.49,1.26-.14,1.91a1.33,1.33,0,0,1-.08,1.08,2.16,2.16,0,0,1-1.55.68,2.34,2.34,0,0,1-1.62-.68h-3A13.29,13.29,0,0,1,112.42,34.17Z"/><path class="cls-70" d="M100.49,22.89c-.78,3.71.73,7.58-.83,11.24a16.67,16.67,0,0,1-2.61-7.19,2.9,2.9,0,0,0-3.16-2.88A44.59,44.59,0,0,1,87,23.15l-1.5-.22a1.51,1.51,0,0,1,.63-1.44c1.94,1.68,4.2.29,6.28.64C95.06,22.59,97.91,21.22,100.49,22.89Z"/><path class="cls-103" d="M87,23.15a2.23,2.23,0,0,1,.36,0c10.77-.58,11.66.22,12.33,11L96,34.25a.6.6,0,0,1-.88-.16c-.09-1.75-1.46-2.36-2.7-3.18-1.59-1.05-3.75-1.57-2.21-4.66C91.23,24.29,88.2,24.12,87,23.15Z"/><path class="cls-70" d="M95.16,34.09l.88.16a1.51,1.51,0,0,0,0,.52l-.12.28c-1.24,1.05-2.76,1-4.24,1-8.79-.06-17.59.21-26.38,0-1.59,0-3.27.15-4.52-1.19,0-.22,0-.44,0-.65Z"/><path class="cls-70" d="M333.93,38.65l-1.48,1.5c-5,0-10,0-14.94.12-2.17.08-3.25-.42-3-2.79.17-1.85.08-3.72.11-5.57.61-.62-.17-2,1-2.2s1.52.74,1.68,1.63c.3,1.62,1.44,1.8,2.78,1.85s3-.22,4.26,1c3.29,0,6.59,0,9.88.07a3.45,3.45,0,0,0,3.43-1.54l0,2.28c-3.15,1.81-6.58.63-9.87.94-1.78.17-3.66-.25-5.7,1.13C326.19,38.28,330.48,35.57,333.93,38.65Z"/><path class="cls-66" d="M333.93,38.65c-3.62-1-7.26-.36-10.9-.17-1.18.06-2.54,0-2.63-1.2-.07-1,1.18-2,2.28-2.14a46.82,46.82,0,0,1,5.93-.22c3,0,5.94,0,8.92,0a4,4,0,0,1-.69,3.71A2.34,2.34,0,0,1,333.93,38.65Z"/><path class="cls-27" d="M286.78,77.49c-.68,1.68.54,1.43,1.49,1.44l11.31.1.7.66a.67.67,0,0,1-.3,1,25.85,25.85,0,0,1-2.64.06H284.28c-13.54,0-27.07.08-40.6-.06-1.42-1.84.13-2.26,1.37-2.64,1.64-.5,3.36-.16,5-.19a22,22,0,0,0,3.8-.21c2.22.1,4.45.44,6.62-.34,6.9-.78,13.73-2.38,20.75-1.68C283.26,75.77,285.32,75.74,286.78,77.49Z"/><path class="cls-110" d="M298,80.52l2.22-.22c2.73-.72,5.59.34,8.31-.6a158.78,158.78,0,0,1,26.32,1.35H298c-.22-.12-.3-.24-.22-.35S297.92,80.52,298,80.52Z"/><path class="cls-111" d="M243.42,80.32l41.1.21c.27.12.36.24.27.35a.36.36,0,0,1-.27.18l-50.86.1a.79.79,0,0,1,.27-1.11c2.74-1.09,5.55-.75,8.36-.38A5.52,5.52,0,0,1,243.42,80.32Z"/><path class="cls-112" d="M188,82.08,159.7,82c-1.12,0-2.74,1.32-2.9-1.12a5.56,5.56,0,0,1,3.58-.75c11.68,0,23.36-.26,35-.14a9.74,9.74,0,0,1,4,.62.92.92,0,0,1,.5,1.2Z"/><path class="cls-2" d="M233.69,80.56q0,.3,0,.6l-18.07.6c-2.21-.83-4.71.65-6.83-.88a1.27,1.27,0,0,1,.77-1c7.41-1.15,14.85-.55,22.27-.34A2.42,2.42,0,0,1,233.69,80.56Z"/><path class="cls-64" d="M243.39,87.76c-1.53,0-3,1.61-4.58.12.16-1.1,2.8-2,.21-3.35-.42-.22,0-.91.5-1.14,1.71-.82,2.31.6,3.13,1.57A2.42,2.42,0,0,1,243.39,87.76Z"/><path class="cls-13" d="M243.39,87.76a4,4,0,0,1-.74-2.8c2.48-2.78,3.12-.51,3.88,1.42C246.12,88.28,245.2,89,243.39,87.76Z"/><path class="cls-113" d="M208.92,81.15c2.2.48,4.53-.55,6.67.61L200,81.82a4,4,0,0,0,0-.6A9,9,0,0,1,208.92,81.15Z"/><path class="cls-114" d="M323.46,86.45c-.14,2.15-1.58,1.65-2.89,1.41-1.39-.63-1.5-1.63-.83-2.85C321.67,83.73,322.72,84.71,323.46,86.45Z"/><path class="cls-115" d="M284.52,81.06a2.35,2.35,0,0,0,0-.53H298a4.69,4.69,0,0,1,0,.53Z"/><path class="cls-50" d="M226.31,86.46c-.34.65-.65,1.36-1.58,1.31-.29-.7-.78-.88-1.27-.26-.87,1.09-1,.24-1.2-.41a7,7,0,0,1,.36-1.73c.27-.55.19-1.64,1-1.5.44.07.72,1.07,1.08,1.66S226,85.76,226.31,86.46Z"/><path class="cls-116" d="M226.31,86.46c-.66-.09-1.35-.13-1.59-.93,1.53.12,1.51-1.89,2.83-2.06.2.77-.17,1.76.87,2.2a1.14,1.14,0,0,1,.05,1.6,1.26,1.26,0,0,0-.2.46C227,88.23,227.06,86.74,226.31,86.46Z"/><path class="cls-70" d="M308.52,79.7c-2.68,1.41-5.53.48-8.31.6,0-.2.06-.41.07-.61Z"/><path class="cls-117" d="M319.74,85a3.24,3.24,0,0,0,.83,2.85,2.59,2.59,0,0,0-.2.57c-1.1.23-1.39-.41-1.44-1.32,0-1.45-.07-2.9-.1-4.35C319.89,83.2,319.7,84.16,319.74,85Z"/><path class="cls-118" d="M156.59,81.27c.88.91,2.1.37,3.1.74a175.76,175.76,0,0,1-22.6.54,5.42,5.42,0,0,0,0-.57c1.61-1.63,3.67-1,5.56-1.08,2.31-.17,4.65.27,6.92-.43a14.69,14.69,0,0,1,6,0A2.19,2.19,0,0,1,156.59,81.27Z"/><path class="cls-119" d="M158.86,84.93a4.52,4.52,0,0,1-.2,3.11c-.91-2-1.73-2.55-3.75-.92-2.18,1.77-3.35.49-2.95-2.14Z"/><path class="cls-83" d="M150,81.26c-4.25,1.08-8.63.06-12.91.72l-3-.23c0-.2,0-.39,0-.58,2.09-1.64,4.56-.82,6.87-1C144,80.55,147.22,79.13,150,81.26Z"/><path class="cls-28" d="M114,83.3l.63-.67h6.53c-1.29.76-2,2.36-3.57,2.36C116.52,84.24,115.63,83,114,83.3Z"/><path class="cls-74" d="M18.07,58.06c.38-2-.62-4.12.67-6,0,3.24,0,6.49,0,9.74C17.59,60.72,18.29,59.31,18.07,58.06Z"/><path class="cls-45" d="M228.47,87.27c0-.53,0-1.07-.05-1.6,1.2-.39,2.46-1.63,3.57,0a1.79,1.79,0,0,1-.36,2.35C230.31,89.13,229.44,87.87,228.47,87.27Z"/><path class="cls-27" d="M140.84,81.09l-6.73.08c0-.48,0-1,0-1.43.59-.75,2.69,0,2-2,1.77-3.67,5.29-1.6,7.95-2.34.89-.24,1.94.18,2.9-.29,3.48-1.7,3.92-3.86,1.2-6.66-.8-.82-1.28-1.62-.66-2.6,1.1-1.75.88-3.49.44-5.36s.48-4.61-3.41-3.06c-1.26.5-2.77-1.82-2.12-3.14,1.5-3,2.21-6.37,3.77-9.34,2-3.84,2.09-3.8-1.69-5.43.12-2.74,2.29-2.58,4-2.45,2.18.17,1.36-1.13,1.36-2.1,1.78-.38,3.15.47,4.48,1.45,1.39,1.41,1.05,3.23,1.08,4.93.08,4.83-.18,9.67.11,14.5.3,5.08,1.06,10.11,3.78,14.6.39,1.34.14,2.88,1.83,3.74a2.57,2.57,0,0,1,1.06,2.94c-.5,2.91-2.78,2.84-5,3a3.46,3.46,0,0,1-1-.23c-5.06,0-10.13.06-15.17.11C140.87,80.32,141,80.74,140.84,81.09Z"/><path class="cls-97" d="M136.35,78.1c.63.49,1.8,1,1.07,1.85-1,1.18-2.16-.46-3.32-.21l-19.45,0c-2.46,1.19-3.84.56-3.93-2.29,2.72-.77,7.29,1,11.57,1s9,2.18,13.32-.21C135.82,77.83,136.07,77.82,136.35,78.1Z"/><path class="cls-25" d="M110.72,77.41a3.33,3.33,0,0,0,3.93,2.29c-.54,2.24-2.23,1.62-3.48,1.14a20.32,20.32,0,0,0-7.86-1.21,1.39,1.39,0,0,1-.26-.91c.2-.49.48-.83,1.08-.58a6.37,6.37,0,0,0,3.9-.67Z"/><path class="cls-100" d="M103.38,78.9a3,3,0,0,1-.06.73c-2.23,0-4.47-.08-6.69.09s-1.79-1-1.47-2.27c2.26.67,4.07-2.61,6.47-.72A3.15,3.15,0,0,0,103.38,78.9Z"/><path class="cls-12" d="M81.72,77.38l7.51-.52c.16.45.31,1.25-.15,1.22C86.62,77.92,84,79,81.72,77.38Z"/><path class="cls-105" d="M75,50.68l15-.11,3.72,0A7.31,7.31,0,0,0,95,57.05c1.55,2.08.89,5.62,1.37,8.51,1,6.16-.61,7.73-6.89,8.4a170.77,170.77,0,0,1-20.6.56l-5.15,0c-1.54-1.85-3.26-3.65.31-5.29a2.11,2.11,0,0,0,1.1-2.56c-.6-1.82.67-2.93,1.21-4.39,1.46-3.86,1.86-8.32,7.31-9C74.22,53.15,74.56,51.56,75,50.68Z"/><path class="cls-25" d="M68.91,74.52c4-.16,7.79-1,12-.46,3.77.48,8.26-.56,12.23-1.72,2.09-.61,3.4-1.77,2.67-5.21-.53-2.52-3.4-5.6-.79-8.77.52-.63-.69-1.89-1.59-2.23C90.28,55,90.77,53.6,93,51.9c.36-.27.48-.85.71-1.29h4.12a60,60,0,0,0,2.65,14.89c0,1.11.08,2.21.08,3.31,0,6.12,0,6.12-6,6.51-7,0-13.94,0-20.9-.14C72,75.15,70.31,75.73,68.91,74.52Z"/><path class="cls-8" d="M324.26,34.14c-1.25,0-2.5-.07-3.74,0-2.84.25-5.34.22-4.07-3.89-1.58-.16-1,1.43-1.87,1.62-.66-10.35-.66-10.29,9.84-10.09,2.17,0,4.74,1.37,6.48-1.21.51,2.42-.7,3.14-2.95,3.55-4.55.85-6.14,3.15-4.78,6.32a4,4,0,0,0,1,1.55C325.24,32.94,325.28,32.88,324.26,34.14Z"/><path class="cls-79" d="M158.86,71.36a23.57,23.57,0,0,1-4.25-14.62c.08-6.77-.18-13.55-.29-20.33,0-.75,0-1.5-.07-2.25-2-5.72-1.48-11.44.1-17.14v0c2-2.1,4.41-1,6.7-.83l5.17.19c1.65,1.61,1,3.69,1.14,5.6-.16,6.45-.14,12.89-.07,19.34a10.2,10.2,0,0,1-.24,1.82c.38,5-.79,10.06.29,15.12a10.26,10.26,0,0,0,4.95,7.08c5.17,3.11,11,.34,11.54-5.62.45-5.07.14-10.18.12-15.27,0-1.7,0-3.39,0-5.09,0-.45,0-.89,0-1.34-.05-5.94-.19-11.88,0-17.81a7.48,7.48,0,0,1,.58-3.62.89.89,0,0,1,1.2-.38c2.72,0,5.45.19,8.16,0,2.16-.12,2.54.53,2.52,2.69-.11,16.83,0,33.65,0,50.47,0,.72-.19,1.5.47,2.08a1.86,1.86,0,0,1,.68,1,2.92,2.92,0,0,1-.4,2.32c-3.28,2.37-7.09,2-10.76,1.84-2.3-.09-2.25-2.28-2.41-4.37a74.16,74.16,0,0,0-7.75,3.7A13.56,13.56,0,0,1,158.86,71.36Z"/><path class="cls-105" d="M197,72.22a.81.81,0,0,1-.09-.71l.21-.09c1.2-3.64,1.31-7.49,2.13-11.21a28.28,28.28,0,0,1,1.25-4.51c1-2.62.22-5.49-.68-8a25.48,25.48,0,0,0-1.52-4.43c-.91-1.56-.32-2.82,1-3.86h29.85c2,3,.34,5.44-1.3,7.78s-1.69,6.24.27,8.36c2.83,3.06,4.69,6.36,3.4,10.72-.41,1.42.28,2.67,1,3.85a3.36,3.36,0,0,1-.49,4.41,5.64,5.64,0,0,1-4.79,1.65c-7.07-.58-14.14.4-21.2,0a35.37,35.37,0,0,1-5.81-.54C198.21,75.37,197.92,73.51,197,72.22Z"/><path class="cls-69" d="M205.21,15.49l7.52,0c6.17-1.52,12.44-.37,18.66-.66,1.26,4.66-1.09,8.2-5.78,8.49-2.94.18-5.9,0-8.85.15-.49.15,0,.71-.17.24,3.87-.9,7.88.24,11.75-.73a2.79,2.79,0,0,1,2.48.7c.13,3.78,1.26,7.74-1.84,11-4.85,1.15-9.78.31-14.66.57-3.88-.22-7.79.46-11.63-.47-1.16-3.65-3.1-7.26-.77-11.16,1.76-1.16,3.65.26,5.44-.26.5,0-.31-.65,0-.25a4.26,4.26,0,0,1-3.16,0c-2.48-2.18-2.9-4.68-1.2-7.52Z"/><path class="cls-66" d="M185.75,16.23l-.27.13-.29,0c-1.31,2.24-.11,5.59-3.17,7.05,1.86,2.91-1.17,6,.29,8.88.9,1.78.29,2.62-1.48,2.76a64.23,64.23,0,0,1-9.71,0,1.7,1.7,0,0,1-1.06-.3c-2.84-2.64-1.33-6.26-1.88-9.39-.4-2.29,2.31-1.92,4-2a11.45,11.45,0,0,0,2-.07c-2.55,0-5.37.4-7.93-1.05,0-1.95,0-3.89,0-5.84,1.8-1.7,4-.52,6-.91,2.34.73,6-2.14,6.77,3.35,1.32-3.48,3.65-3.41,6-3.33Z"/><path class="cls-1" d="M232.16,73.68c.07-1,.63-2-.39-3.06a4.68,4.68,0,0,1-.91-5.7c1-2.26-1.13-7.43-3.76-8.86-1.4-.77-1.91-1.36-1.19-2.77.05-.11.15-.29.11-.34-3-3.79,1-5.58,2.34-8.11a10.88,10.88,0,0,0,.78-5.41l3.76,0c2.06,2.19,1.79,4.54.15,6.7-2.27,3-1.32,6.05-.71,9.16.68.76,1.64,1.18,2.33,1.94A3,3,0,0,1,235,58.8a49.75,49.75,0,0,0,1.65,11.63c.31,2-.06,3.7-2.2,4.52C233.38,75.05,232.24,75.3,232.16,73.68Z"/><path class="cls-58" d="M199.29,39.43a6.84,6.84,0,0,0,.92,6.92c1,1.39,2.7,2.76.88,4.85-.49.57.47,1.28,1,1.82s1,1.13.62,1.61C198.83,59,200,64.75,198.46,69.74a2.6,2.6,0,0,1-1.35,1.68c0-7.61-.1-15.21-.08-22.82,0-2.26,1.28-4.39.08-6.82C196.41,40.37,197.43,39.19,199.29,39.43Z"/><path class="cls-105" d="M228.41,38.62H202.25c-1.27-2.07-.77-3.3,1.73-3.46.89,0,1.67-.46,2.54-.59,2.5,0,5-.06,7.5,0,3.79.93,7.62.06,11.42.32,1.46.1,3-.28,4.38.42C231.3,37.27,230,38,228.41,38.62Z"/><path class="cls-9" d="M202.23,23.73c-.47,1.86-1.25,3.6.34,5.5,1.26,1.5-.64,3.23-.34,4.93-1.25,1.16-2.5,1-3.75,0-1.31-3.41-2-6.86-.75-10.45C199.23,22.61,200.73,22.42,202.23,23.73Z"/><path class="cls-66" d="M203,15.54c-.16,2.61-.08,5.17,1.48,7.44-1.24.71-2.59.21-3.89.35-2.22-.44-2.59-2.45-3.42-4.06C196.27,13.63,200.53,16,203,15.54Z"/><path class="cls-120" d="M232.15,55.81c-.55-.23-1.59-.64-1.58-.66,1-2.84-1.36-6.64.75-8.49,2.73-2.41,1.88-4.65,1.58-7.21l.75,0c3.56,1.61,1.87,4.26,1.18,6.55-.6,2-1.81,3.8-.21,5.81a2,2,0,0,1,0,1A25.87,25.87,0,0,1,232.15,55.81Z"/><path class="cls-83" d="M234.31,52.11c-2.75-1.59-1.54-3.63-.65-5.65,1-2.34,2.31-4.7,0-7,.83-1-.84-.85-.74-1.53a2.42,2.42,0,0,1,2-2.63c.38.05.83.08,1,.39C238,39.05,237,49,234.31,52.11Z"/><path class="cls-9" d="M206,34.92c-.35.67-.81,1.48-1.61,1.25-2.7-.81-2,1.09-2.11,2.44-1.09,0-2.18,0-3.28,0-.88,0-1.73-.1-1.86-1.25a1.35,1.35,0,0,1,1.36-1.72A10.42,10.42,0,0,1,206,34.92Z"/><path class="cls-58" d="M206,34.92c-2.57-.47-5,.87-7.5.73,0-.49,0-1,0-1.48h3.75l12,.06c.17.15.23.3.17.45s-.12.23-.18.23Z"/><path class="cls-1" d="M234.37,35.71l-1.46,2.18a7.61,7.61,0,0,1-4.5.73c.8-.81,1.82-1.52,1.48-2.91A3.08,3.08,0,0,1,234.37,35.71Z"/><path class="cls-58" d="M200,23h8.08l0,.75H197.73V23A1.62,1.62,0,0,1,200,23Z"/><path class="cls-9" d="M200,23h-2.25c-1.15-1.09-.59-2.45-.59-3.71A7.44,7.44,0,0,1,200,23Z"/><path class="cls-79" d="M266.65,17,265,20.64c-.4,2.18-2,2.61-3.87,2.61-2.86,0-5.73.14-8.59.13-2.51,0-3.59,1.19-3.57,3.66,0,3,.09,6,0,8.93-.1,2.67,1,3.89,3.7,3.8,3.48-.12,7,0,10.45.1,1.6,0,3.34-.08,4,1.94-.47,5-1.82,6.65-6.1,7.57-3,.17-5.94,0-8.9.1-1.64,0-3.07.43-3.05,2.4.08,6-.66,12.06.32,18.07.25,1.62.43,3.23-.61,4.68-3.38,1.63-7,.85-10.55,1.14a2.11,2.11,0,0,1-2-1.47c.06-4.58-.51-9.13-.75-13.7-.41-7.43,1.46-14.78.57-22.21-.79-6.64-.36-13.33-.71-20a2,2,0,0,1,.66-1.91,3,3,0,0,1,2.3-.9q13.08,0,26.16-.21C265.74,15.37,266.81,15.34,266.65,17Z"/><path class="cls-120" d="M236.06,16.5l0,.94c.47,4.87-1,6.37-5.85,5.92a2.22,2.22,0,0,0-1.73.35H216.65L216.6,23c1.32,0,2.64.1,4,0,2.61-.24,5.28.66,7.79-1.29s2.59-4.33,3-6.85C233.21,14.65,234.9,14.85,236.06,16.5Z"/><path class="cls-8" d="M161,16.21c-2.17.74-4.59-.44-6.7.83,0-.51,0-1,0-1.52C156.55,15.82,158.92,14.81,161,16.21Z"/><path class="cls-8" d="M154.35,17a150.79,150.79,0,0,1-.1,17.14l-3,0c-.94-2.76-2.36-5.45.26-8.21,1-1.09.34-2.09-1.19-2.14a26.52,26.52,0,0,1-5-.42C150.54,24.12,152.21,20.26,154.35,17Z"/><path class="cls-41" d="M330.16,47.49c-.16,2-2.48,1.7-2.86,1.5-1.71-.92-4.07-1.26-4.74-.08-1.35,2.39-4,4.45-3.51,7.51.18,1.22.21,1.62-.91,1.6-2.67-.06-2.9,1.58-2.88,3.66.05,3.57-.06,7.14-.1,10.7-1.12-7.73-.46-15.52-.68-23.28-.05-1.78,1.21-1.51,2.28-1.52Z"/><path class="cls-121" d="M286.78,77.49l-5.18-.89a.78.78,0,0,1,.22-1.1,4.42,4.42,0,0,1,3.48-1c4.36,1,8.59-.52,12.9-.41,2.25.06,3.34-1.13,3.29-3.46-.09-4.43-.07-8.86,0-13.3,0-10.14-.08-20.28,0-30.41a11.88,11.88,0,0,1,.81-4.7l.39-.88c.83,7.64.35,15.32.51,23,.19,8.55.3,17.1,0,25.64-.11,3.27,1,4.1,3.86,3.84,0,1.62-1.55.54-1.92,1,2,.75,4.71-2.17,6.49,1.2C303.34,76.94,295,75.94,286.78,77.49Z"/><path class="cls-122" d="M311.58,76c-2.3-1.66-5-.22-7.58-1,.82-1,2.35-.13,3-1.17l7.49-.1,2.95,1.53c-.26,3-2,2.9-3.95,1.67A4.1,4.1,0,0,0,311.58,76Z"/><path class="cls-123" d="M302.24,22.26q0,17.91.11,35.82c-3.25,1-2.56.94-2.71-2.16-.22-4.65.54-9.29,0-13.89-.28-2.56-2.67-1.34-4.22-1.53-7.81.13-15.61.06-23.41,0a7.42,7.42,0,0,1-4-.66c-1.16-.68-.75-1.32.16-1.88,5.1-1.91,10.33-.21,15.49-.48,4.44-.23,8.9.07,13.39-.51-2.86-1.35-5.95-.94-9-1-3.22-.06-6.45,0-9.68,0s-6.45,0-9.67,0c-3.14,1.41-6.33-.63-9.94.15,2.61,1.61,5.8.71,8.2,3-2,1-3.73.28-4.95.61a37.82,37.82,0,0,1,4.22,0c1.6.19,1.62.58.41,2.57.12-2.13-1.47-1.56-2.58-1.57-4.49,0-9-.11-13.47,0-2,.06-2.61-.57-2.6-2.49,0-4.48-.08-8.95-.24-13.42-.06-1.77.63-2.49,2.36-2.48,3.74,0,7.49-.17,11.22,0A3.41,3.41,0,0,0,265,20.64c1,2.81,3.14,0,4.54.85a2.1,2.1,0,0,1,0,2.45c-2.54,1.51-5.32.87-8,.92-1.48,0-3.28-.23-3.83,1.57a9.26,9.26,0,0,0,0,5.84c.48,1.3,2.21.78,3.4.79,11.72.07,23.45-.07,35.16.09,3.65.74,3.46-2,3.85-4.22.53-3.05-1.6-3.36-3.77-3.62a4.52,4.52,0,0,1-2.93-1.44c-.25-2,1.79-.76,2.33-1.63h1.5C298.93,22.1,300.58,23.31,302.24,22.26Z"/><path class="cls-103" d="M269.58,23.71V21.49c3,2.93,6.8,1.3,10.2,1.38,5.32.13,10.67-.39,16-.63l-2.24,1.47C290,25.46,273.07,25.45,269.58,23.71Z"/><path class="cls-120" d="M24.5,23a13.9,13.9,0,0,1,5.69.62c1.2.48,2,1.26,1.83,2.45a2.56,2.56,0,0,1-2.36,2.06c-3,.51-5.88-.77-8.86-.84-1.36,0-1.16-1.37-1.18-2.34,0-1.15.41-1.93,1.69-1.95S23.8,23,24.5,23Z"/><path class="cls-120" d="M27.83,34.12H19.61c-.24-3.71,2.13-4.81,5.23-5.17C26.45,30.32,28.63,31.36,27.83,34.12Z"/><path class="cls-9" d="M27.83,34.12C27.56,32,25.3,31,24.84,29c3.32-.33,4.42,2.21,5.77,4.43C30,34.67,28.79,34,27.83,34.12Z"/><path class="cls-69" d="M90,49.84l-25.43,0a6.64,6.64,0,0,0-2.79-3.34c-1.06-.58-2.51-1.57-2.27-2.74.57-2.82-1.13-3-3.3-3.18,2.71-2,5.92-1.61,8.46-1.48,10.1.51,20.19.19,30.28.24,3,0,3.24,1,2.35,3.43C96,46.35,94.61,49.75,90,49.84Z"/><path class="cls-124" d="M60.75,34.87,95.89,35c.32,2.06-.46,2.9-2.64,2.88q-17.18-.11-34.35,0c-2.26,0-2.87-1-2.58-2.94Z"/><path class="cls-125" d="M136.35,78.1a3.65,3.65,0,0,1-.74.09c-1.36-3.64-1.4-3.66-3.75-1.24a3.43,3.43,0,0,0-.35.55c-3.6-2.48-7.93.44-11.6-1.53.68-1.67-.77-1.48-1.57-1.7-3-.84-3.47-2.94-2.74-5.5a37.25,37.25,0,0,1,2-5.6c.48-1,1-2.08.67-3.19-.81-2.44.38-4,2.07-5.48,1.46-1.24,1.05-2.43.79-4.18-.53-3.57-2.53-6.11-4.36-8.88a1.54,1.54,0,0,1,.15-2h1.52c2.31-2.09,5-.43,7.5-.75,5.18-.66,10.4-.24,15.61-.33a3.7,3.7,0,0,1,3.06,1.06c1.45.37,3.62-1,4.26,1.09.5,1.61-.32,3.36-1.62,4.67-.48.5-1.32,4.66-1.47,6.26a2.25,2.25,0,0,1-.77,1.16c-2,2-2,2-.55,4.44,1.15-.23,1.18-2.87,3.05-1.53a2.7,2.7,0,0,1,1.34,3.14c-.69,2.63,2.47,5.68-.91,8.14-.42.3.55.84,1.12,1.08,2,.84,3.35,2.91,2.29,4.33-1.45,1.94-2.83,4.61-6.28,4.4C142.11,76.4,138.81,75.17,136.35,78.1Z"/><path class="cls-25" d="M116.9,39.4c1.16,3.16,2.8,5.9,6.5,7.37-2.47.86-3.08,2-1.13,4.13.87,1,1,2.62-.8,3.84s-3.29,2.58-2.09,5.73c.69,1.81-1.49,4.72-2.42,7.12-1.58,4.09-1.38,4.66,2.77,6.08,2.06.71,2.48,1.35.18,2.3-.85-1.16-2.36-1.16-3.39-1.17-3.6,0-3.84-2.27-3.26-4.69a34,34,0,0,0,.66-8.09c0-2.72.64-5,3-6.66.65-.46,2.08-1.46.78-2.27-2.27-1.42-2-1.8.32-2.67,1.08-.39-.59-.49-.61-.93-.09-3.48-3.6-6.29-2-10.09Z"/><path class="cls-126" d="M103.38,78.9h-3.12c-.28-1.44,1.27-1.27,1.37-2.17,1.48-.68,1.62,1,2.5,1.41Z"/><path class="cls-25" d="M144.59,39.39l-26.17,0c-.59-3-3.65-.39-5-2.37,1.45-1.25,3.31-.25,4.87-.85-.7-1.12-2.06,0-3.15-1.24h6.25c5.49,2.87,11.32,2.06,17.07,1.41,2.77-.31,5.79.52,8.3-1.39h3.05c.64,1,2.19,1.11,2.43,2.55C149.84,38.88,146.52,36.36,144.59,39.39Z"/><path class="cls-125" d="M146.79,35a3,3,0,0,1-3,2.23c-5.18.12-10.36.39-15.53.72-2.84.18-4.86-1.31-6.85-3Z"/><path class="cls-109" d="M236.63,74.51c4,.87,7.94,0,11.9-.21a1.82,1.82,0,0,1,.71.72,8.45,8.45,0,0,0,1.68,3.88c-2.43.86-5.47-1.53-7.5,1.42h-.8a6.78,6.78,0,0,1-1-1.53c-1.78-1.23-4.5.71-5.91-1.72a.53.53,0,0,1,.46-.48s.07-.19.1-.29c-8,1.54-16,.49-24,.62-2.38,0-4.82,1.56-7.2,0a1.46,1.46,0,0,1,.08-1.76c7.28,0,14.56-.13,21.83,0a11,11,0,0,0,5.14-1.52c.51.94,1.39.72,2.2.7C235.15,73.86,235.89,74.24,236.63,74.51Z"/><path class="cls-127" d="M281.54,75.92c0,.23,0,.46.06.68a53,53,0,0,1-6.3,0c-5.28-.56-10.14,2.6-15.44,1.61-1.75-.35-1.13-1.29-.35-1.94a15,15,0,0,1,3.23-1.82c5.4-1.09,10.82.25,16.23-.11A3.61,3.61,0,0,1,281.54,75.92Z"/><path class="cls-109" d="M262.9,75.1c-.83.63-1.3,1.69-2.63,1.72-1,0-1.14.69-.41,1.42-2,1.22-3.93.91-5.89,0-2.2-.13-4.8.27-4.53-3.27,4-1.65,8.23-.73,12.35-1.09A1.15,1.15,0,0,1,262.9,75.1Z"/><path class="cls-128" d="M249.29,75.28c.48,2.68,3.46,1.42,4.68,2.94-.88.82-2,.57-3.05.68-1.77-.59-2.27-2-2.29-3.66C248.87,75,249.09,75,249.29,75.28Z"/><path class="cls-83" d="M205.21,76.75c11.12-1.75,22.32-.24,33.95-.92-1.07,1.33-2.72.37-3.24,1.63,2.15,1,4.57-.31,6.71.78,0,.7,0,1.39,0,2.09l-8.93.23-24.52,0c-3,.6-6.07.17-9.11.25-2.15,0-2.86-1.45-3.11-3.29.53-1,1.18-1.92,2.51-1.92C201.39,75.85,203.48,75.45,205.21,76.75Z"/><path class="cls-123" d="M197.73,77.43c2.59,3,2.59,3,7,3,1.49,0,3,.06,4.48.09a1.1,1.1,0,0,0-.25.63l-9,.07-43.37,0-.8-.27a.68.68,0,0,1-.18-.51c0-.18,0-.27.08-.27a1.13,1.13,0,0,1,1.07-.56c.16,0,.32,0,.48,0,4.25-.9,8.52-.27,12.79-.09.49-.09,0-.77.16-.29.05.14-.05.2-.29.22-2,.19-3.91-.47-5.89-.24-1.45.17-1.94-.79-2.22-2s-.48-2.76-1.68-3.08c-2-.53-1.11-1.83-1.25-2.89,8.65,8.33,17.16,4.86,25.19-.61a1.78,1.78,0,0,1,1,2.22c-.31,2.35.64,3.29,2.92,2.75,2.94-.7,6.2.75,8.94-1.29C198.15,75,198.25,75.41,197.73,77.43Z"/><path class="cls-99" d="M155.78,80.67V81a18.74,18.74,0,0,1-5.79.26l-9.16-.16-2.23-1.43c5.19-.8,10.41-.17,15.62-.31A1.46,1.46,0,0,1,155.78,80.67Z"/><path class="cls-51" d="M155.78,80.67c-2.18-1.81-4.76-.82-7.16-.94-3.33-.17-6.67,0-10-.06,3.49-1.63,7.21-.3,10.78-.79,2-.27,4,.63,6-.91,1.24-1,1.05,1,1.37,1.69Z"/><path class="cls-75" d="M161.79,77.33C162.71,78.7,164,79,165.62,79c1.78,0,3.71-.49,6.18,1.76-5.48-1.27-10-1-14.56-1C158.35,78.13,161.11,79.72,161.79,77.33Z"/><path class="cls-9" d="M166.22,43l0-1.35a3.82,3.82,0,0,0,1.11-3c-.64-3.25,1.15-3.76,3.79-3.75,3.06,0,6.12-.34,9.19-.3,1.19,0,2.72-.37,3.17,1.17s-.34,2.84-2.08,3.27c-3.21,0-6.43,0-8.39,0,2.46-.17,6.17.37,9.87-.26a2.33,2.33,0,0,1,2,.67c0,1.73,0,3.47,0,5.21-2.3,2.67-.54,6.66-3,9.27a.63.63,0,0,0-.06.71c.92,1.59,2.43,3.5.06,4.74-2.77,1.45-5.77,3-9.15,1.87-2.8-.92-3.59-2.48-2.71-5.34.25-.84.68-1.59.05-2.42C167.73,50.35,168.15,46.23,166.22,43Z"/><path class="cls-48" d="M166.22,43c3,1.61,2.3,5,3.52,7.44s2.66,4.67.59,7.67c-.74,1.06,3.5,3.25,5.65,2.54,1.16-.38,2.19-1.16,3.5-1.11a2.78,2.78,0,0,0,2.93-1.85c.44-1.25-.85-1.56-1.58-2.16a4.78,4.78,0,0,1-.78-1.17c4-2.07.86-7.69,4.9-9.72A103.61,103.61,0,0,1,185,60.18c-.57,6.84-4.83,7.78-10.5,7.21-4.28-.43-7.56-4.53-8.19-8.93A69.08,69.08,0,0,1,166.22,43Z"/><path class="cls-61" d="M182,38.6c1.54-2.35,1.59-3.93-1.92-3.67s-7,.51-10.53.74c-1.2.08-2.19.67-1.44,1.81,1.73,2.58-.53,3.1-1.86,4.15a144.21,144.21,0,0,1,0-19.39c.89-.33,1.78-1.14,2.76-.28,1.88,1.66,3.88,1.12,5.92.43.87-.29,1.72-1.29,2.67-.21a1,1,0,0,1,.19,1c-.7,1-1.81.46-2.74.57-.62.07-1.25,0-1.87,0-4.82,0-4.81,0-3.46,4.7.13.47.38,1,.22,1.44-2,4.81,1.32,4.34,4.26,4.31,2.58,0,5.17,0,8.22,0-2.23-1.93-2.37-3.86-1.18-5.91s1-3.52-1.78-4.94c4.89-.58,3.7-4.87,5.72-7L185,38.64A2.74,2.74,0,0,1,182,38.6Z"/><path class="cls-23" d="M182,38.6l3,0,0,.77h-14V38.6Z"/><path class="cls-58" d="M197.73,77.43l-.82-3a2.52,2.52,0,0,1,.09-2.21c1.42.53,1.9,2,2.95,2.93a.52.52,0,0,1,.19.53c0,.18-.11.27-.16.27C198.82,75.83,198.51,77,197.73,77.43Z"/><path class="cls-123" d="M200,76l0-.8c1.75-.9,3.49.53,5.24,0,0,.52,0,1,0,1.58A10.51,10.51,0,0,1,200,76Z"/><path class="cls-48" d="M236.63,74.51c-.8.74-1.5-.29-2.27-.13,1.84-1,1.53-2.75,1.51-4.39-1-3.66-.06-7.59-1.48-11.2,0-.49,0-1,0-1.48-1.25-1.49.08-3,0-4.5a3.3,3.3,0,0,0-.05-.7c2.65-5,1.09-10.29,1.41-15.46.05-.78-.72-.88-1.36-.94h-4.48c-3.88.14-7.76-.41-11.66.34a4.63,4.63,0,0,1-4-1.15c0-.23,0-.46,0-.68l14.93-.09a2.25,2.25,0,0,1,1.63-.76c2.58.41,2.62-1.24,3.17-3.13,1-3.45.22-5.54-3.28-6.52h-2.22a2,2,0,0,1,2-.72c4,.26,5.35-2.09,5.62-5.55,1.19,6,.45,12.08.52,18.11C236.68,48.54,236.61,61.52,236.63,74.51Z"/><path class="cls-120" d="M230.66,23.72c5.39,0,5.39,0,4.47,5.3a2.33,2.33,0,0,0,0,.37c0,4.11-1.89,5.74-6,4.74C230.73,30.82,229,27,230.66,23.72Z"/><path class="cls-83" d="M234.39,58.79c2.24,1.11,1.39,3.19,1.48,4.92.1,2.09,0,4.19,0,6.28C234.23,66.41,234.16,62.62,234.39,58.79Z"/><path class="cls-83" d="M234.37,52.81c2.76,1.49-1,3,0,4.5-1.09,0-2.18,0-2.25-1.5S232.46,52.94,234.37,52.81Z"/><path class="cls-69" d="M249.29,75.28l-.66,0-.1-.94c0-1.35,0-2.71,0-4.06-.22-6.14.83-11.56,6.5-15.42,2.41-1.65,3.67-4.81,6.33-6.46,4.2.15,3.83-3.77,5.39-6,1.28-1.64.32-2.2-1.21-2.28a20.17,20.17,0,0,1-5.53-.63h5.86l0-.6c-2.13-.32-4.26-.67-6.39-1-1.05-.15-2.48.25-2.5-1.42,0-1.95,1.61-1.53,2.73-1.5,1.68,0,3.45-.51,5,.68,1.33,1,2.09-1.13,3.35-.71a3.3,3.3,0,0,1,.75,3.7c-.13,0-.28,0-.36.08a2.44,2.44,0,0,0-.32.45c.94.07,1.89.19,2.84.2l25.51,0a14.25,14.25,0,0,1-.77,10.43c-1.14,2.42-.82,4.29.73,6.52,2.88,4.14,3.39,9.26,4.88,14,.65,2.05-2.47,4.2-5.36,4.53-5.55.64-11.12-.08-16.67.33L262.9,75.1C258.35,74.37,253.83,75.38,249.29,75.28Z"/><path class="cls-58" d="M261.35,48.36l.5,1.38c-4.23.31-3.6,6.08-7.64,6.74A3.16,3.16,0,0,0,252,58.29c-1,4-3.7,7.58-3.52,11.95-1-6.61-.24-13.26-.5-19.88-.07-1.6.72-2.17,2.25-2.12C254,48.36,257.67,47.75,261.35,48.36Z"/><path class="cls-120" d="M279.32,75.18c3.46-1.5,7.06-.4,10.6-.62s7.18.86,9.93-2.46c.74-.89,1.11-1.47.58-2.56a33.6,33.6,0,0,1-3.24-10.45,2,2,0,0,0-.64-1.3c-4-2.85-2.94-6-1.21-9.74,1.16-2.54.84-5.74,1.17-8.64,3.14-.28,4.58-.07,4.33,4.25-.21,3.89-2,8.17.45,12.17,1,1.71-1.43,1-2,2.25h3.05c0,4.69,0,9.39.16,14.08.08,2.31-.9,3-3.07,3-6,.14-11.93.47-17.9.73Z"/><path class="cls-69" d="M269.58,23.71h24l3,.76c1.11,1.65,1.85,3.41.18,5-1.92,1.88,1.07,3,.51,4.62-12.71,0-25.42-.06-38.12.06-2.53,0-3.83-.36-2.85-3.15A4.25,4.25,0,0,0,256.6,30c.38-6.62.38-6.58,7.06-6.15C265.62,24,267.6,23.76,269.58,23.71Z"/><path class="cls-125" d="M268.84,38.65a6,6,0,0,1-.75-3.7h25.76A8.34,8.34,0,0,1,295,35c1.9.28,4.78,0,4.61,2.5-.15,2.12-2.92,1.15-4.48,1.12-7.17-.15-14.35.51-21.52-.53C272.06,37.82,270.42,38.43,268.84,38.65Z"/><path class="cls-103" d="M297.22,34.13c-1.91-1.72-4-3.34-.62-5.74,1.64-1.15-1.43-2.57-.07-3.92,4.24.31,5.16,1.35,4.42,5.48C300.58,32,301.28,35.26,297.22,34.13Z"/><path class="cls-129" d="M242.63,78.24c-2.21-.49-4.64.9-6.71-.78l6.72.19c.05,0,.13.17.12.26A.91.91,0,0,1,242.63,78.24Z"/><path class="cls-130" d="M262.39,65.44c-1.47,1.5-.79,3.49-2.66,3.65-1,.09-1.21-.61-1.47-1.34-.62-1.67-1.3-3.42.21-4.87,1.77-1.7,3.94-2.67,6.38-1.67a2.14,2.14,0,0,0,2.39-.22c1.33-1.05-.12-1.34-.58-1.89-.9-1.08,0-1.69.72-2a5.94,5.94,0,0,1,3.18-.88,77.65,77.65,0,0,0,16.69.39c1.57-.09,3.07.83,3.05,2.18-.05,3,1.9,5,2.83,7.54,1.59,4.25,0,6.53-4.47,6.66a41.57,41.57,0,0,0-8.53.64c-2.16.51-4.44.36-6.11-1.74-.95-1.19-2.1-1.94-3.74-.52-2.2,1.91-5,1.46-7.2.34C261,70.63,262.43,68.1,262.39,65.44Z"/></g></g></svg>